<svg width="393" height="481" viewBox="0 0 393 481" fill="none" xmlns="http://www.w3.org/2000/svg">
<g clip-path="url(#clip0_638_5297)">
<path opacity="0.1" d="M2680 36H-2288V37H2680V36Z" fill="#9F9F9F"/>
<path opacity="0.1" d="M2680 42H-2288V43H2680V42Z" fill="#9F9F9F"/>
<path opacity="0.1" d="M2680 48H-2288V49H2680V48Z" fill="#9F9F9F"/>
<path opacity="0.1" d="M2680 54H-2288V55H2680V54Z" fill="#9F9F9F"/>
<path opacity="0.1" d="M2680 60H-2288V61H2680V60Z" fill="#9F9F9F"/>
<path opacity="0.1" d="M2680 66H-2288V67H2680V66Z" fill="#9F9F9F"/>
<path opacity="0.1" d="M2680 72H-2288V73H2680V72Z" fill="#9F9F9F"/>
<path opacity="0.1" d="M2680 78H-2288V79H2680V78Z" fill="#9F9F9F"/>
<path opacity="0.1" d="M2680 84H-2288V85H2680V84Z" fill="#9F9F9F"/>
<path opacity="0.1" d="M2680 90H-2288V91H2680V90Z" fill="#9F9F9F"/>
<path opacity="0.1" d="M2680 96H-2288V97H2680V96Z" fill="#9F9F9F"/>
<path opacity="0.1" d="M2680 102H-2288V103H2680V102Z" fill="#9F9F9F"/>
<path opacity="0.1" d="M2680 108H-2288V109H2680V108Z" fill="#9F9F9F"/>
<path opacity="0.1" d="M2680 114H-2288V115H2680V114Z" fill="#9F9F9F"/>
<path opacity="0.1" d="M2680 120H-2288V121H2680V120Z" fill="#9F9F9F"/>
<path opacity="0.1" d="M2680 126H-2288V127H2680V126Z" fill="#9F9F9F"/>
<path opacity="0.1" d="M2680 132H-2288V133H2680V132Z" fill="#9F9F9F"/>
<path opacity="0.1" d="M2680 138H-2288V139H2680V138Z" fill="#9F9F9F"/>
<path opacity="0.1" d="M2680 144H-2288V145H2680V144Z" fill="#9F9F9F"/>
<path opacity="0.1" d="M2680 150H-2288V151H2680V150Z" fill="#9F9F9F"/>
<path opacity="0.1" d="M2680 156H-2288V157H2680V156Z" fill="#9F9F9F"/>
<path opacity="0.1" d="M2680 162H-2288V163H2680V162Z" fill="#9F9F9F"/>
<path opacity="0.1" d="M2680 168H-2288V169H2680V168Z" fill="#9F9F9F"/>
<path opacity="0.1" d="M2680 174H-2288V175H2680V174Z" fill="#9F9F9F"/>
<path opacity="0.1" d="M2680 180H-2288V181H2680V180Z" fill="#9F9F9F"/>
<path opacity="0.1" d="M2680 186H-2288V187H2680V186Z" fill="#9F9F9F"/>
<path opacity="0.1" d="M2680 192H-2288V193H2680V192Z" fill="#9F9F9F"/>
<path opacity="0.1" d="M2680 198H-2288V199H2680V198Z" fill="#9F9F9F"/>
<path opacity="0.1" d="M2680 204H-2288V205H2680V204Z" fill="#9F9F9F"/>
<path opacity="0.1" d="M2680 210H-2288V211H2680V210Z" fill="#9F9F9F"/>
<path opacity="0.1" d="M2680 216H-2288V217H2680V216Z" fill="#9F9F9F"/>
<path opacity="0.1" d="M2680 222H-2288V223H2680V222Z" fill="#9F9F9F"/>
<path opacity="0.1" d="M2680 228H-2288V229H2680V228Z" fill="#9F9F9F"/>
<path opacity="0.1" d="M2680 234H-2288V235H2680V234Z" fill="#9F9F9F"/>
<path opacity="0.1" d="M2680 240H-2288V241H2680V240Z" fill="#9F9F9F"/>
<path opacity="0.1" d="M2680 246H-2288V247H2680V246Z" fill="#9F9F9F"/>
<path opacity="0.1" d="M2680 252H-2288V253H2680V252Z" fill="#9F9F9F"/>
<path opacity="0.1" d="M2680 258H-2288V259H2680V258Z" fill="#9F9F9F"/>
<path opacity="0.1" d="M2680 264H-2288V265H2680V264Z" fill="#9F9F9F"/>
<path opacity="0.1" d="M2680 270H-2288V271H2680V270Z" fill="#9F9F9F"/>
<path opacity="0.1" d="M2680 276H-2288V277H2680V276Z" fill="#9F9F9F"/>
<path opacity="0.1" d="M2680 282H-2288V283H2680V282Z" fill="#9F9F9F"/>
<path opacity="0.1" d="M2680 288H-2288V289H2680V288Z" fill="#9F9F9F"/>
<path opacity="0.1" d="M2680 294H-2288V295H2680V294Z" fill="#9F9F9F"/>
<path opacity="0.1" d="M2680 300H-2288V301H2680V300Z" fill="#9F9F9F"/>
<path opacity="0.1" d="M2680 306H-2288V307H2680V306Z" fill="#9F9F9F"/>
<path opacity="0.1" d="M2680 312H-2288V313H2680V312Z" fill="#9F9F9F"/>
<path opacity="0.1" d="M2680 318H-2288V319H2680V318Z" fill="#9F9F9F"/>
<path opacity="0.1" d="M2680 324H-2288V325H2680V324Z" fill="#9F9F9F"/>
<path opacity="0.1" d="M2680 330H-2288V331H2680V330Z" fill="#9F9F9F"/>
<path opacity="0.1" d="M2680 336H-2288V337H2680V336Z" fill="#9F9F9F"/>
<path opacity="0.1" d="M2680 342H-2288V343H2680V342Z" fill="#9F9F9F"/>
<path opacity="0.1" d="M2680 348H-2288V349H2680V348Z" fill="#9F9F9F"/>
<path opacity="0.1" d="M2680 354H-2288V355H2680V354Z" fill="#9F9F9F"/>
<path opacity="0.1" d="M2680 360H-2288V361H2680V360Z" fill="#9F9F9F"/>
<path opacity="0.1" d="M2680 366H-2288V367H2680V366Z" fill="#9F9F9F"/>
<path opacity="0.1" d="M2680 372H-2288V373H2680V372Z" fill="#9F9F9F"/>
<path opacity="0.1" d="M2680 378H-2288V379H2680V378Z" fill="#9F9F9F"/>
<path opacity="0.1" d="M2680 384H-2288V385H2680V384Z" fill="#9F9F9F"/>
<path opacity="0.1" d="M2680 390H-2288V391H2680V390Z" fill="#9F9F9F"/>
<path opacity="0.1" d="M2680 396H-2288V397H2680V396Z" fill="#9F9F9F"/>
<path opacity="0.1" d="M2680 402H-2288V403H2680V402Z" fill="#9F9F9F"/>
<path opacity="0.1" d="M2680 408H-2288V409H2680V408Z" fill="#9F9F9F"/>
<path opacity="0.1" d="M2680 414H-2288V415H2680V414Z" fill="#9F9F9F"/>
<path opacity="0.1" d="M2680 420H-2288V421H2680V420Z" fill="#9F9F9F"/>
<path opacity="0.1" d="M2680 426H-2288V427H2680V426Z" fill="#9F9F9F"/>
<path opacity="0.1" d="M2680 432H-2288V433H2680V432Z" fill="#9F9F9F"/>
<path opacity="0.1" d="M2680 438H-2288V439H2680V438Z" fill="#9F9F9F"/>
<path opacity="0.1" d="M2680 444H-2288V445H2680V444Z" fill="#9F9F9F"/>
<path opacity="0.1" d="M2680 450H-2288V451H2680V450Z" fill="#9F9F9F"/>
<path opacity="0.1" d="M2680 456H-2288V457H2680V456Z" fill="#9F9F9F"/>
<path opacity="0.1" d="M2680 462H-2288V463H2680V462Z" fill="#9F9F9F"/>
<path opacity="0.1" d="M2680 468H-2288V469H2680V468Z" fill="#9F9F9F"/>
<path opacity="0.1" d="M2680 474H-2288V475H2680V474Z" fill="#9F9F9F"/>
<path opacity="0.1" d="M2680 480H-2288V481H2680V480Z" fill="#9F9F9F"/>
<path opacity="0.1" d="M4 -846H3V1096H4V-846Z" fill="#9F9F9F"/>
<path opacity="0.1" d="M10 -846H9V1096H10V-846Z" fill="#9F9F9F"/>
<path opacity="0.1" d="M16 -846H15V1096H16V-846Z" fill="#9F9F9F"/>
<path opacity="0.1" d="M22 -846H21V1096H22V-846Z" fill="#9F9F9F"/>
<path opacity="0.1" d="M28 -846H27V1096H28V-846Z" fill="#9F9F9F"/>
<path opacity="0.1" d="M34 -846H33V1096H34V-846Z" fill="#9F9F9F"/>
<path opacity="0.1" d="M40 -846H39V1096H40V-846Z" fill="#9F9F9F"/>
<path opacity="0.1" d="M46 -846H45V1096H46V-846Z" fill="#9F9F9F"/>
<path opacity="0.1" d="M52 -846H51V1096H52V-846Z" fill="#9F9F9F"/>
<path opacity="0.1" d="M58 -846H57V1096H58V-846Z" fill="#9F9F9F"/>
<path opacity="0.1" d="M64 -846H63V1096H64V-846Z" fill="#9F9F9F"/>
<path opacity="0.1" d="M70 -846H69V1096H70V-846Z" fill="#9F9F9F"/>
<path opacity="0.1" d="M76 -846H75V1096H76V-846Z" fill="#9F9F9F"/>
<path opacity="0.1" d="M82 -846H81V1096H82V-846Z" fill="#9F9F9F"/>
<path opacity="0.1" d="M88 -846H87V1096H88V-846Z" fill="#9F9F9F"/>
<path opacity="0.1" d="M94 -846H93V1096H94V-846Z" fill="#9F9F9F"/>
<path opacity="0.1" d="M100 -846H99V1096H100V-846Z" fill="#9F9F9F"/>
<path opacity="0.1" d="M106 -846H105V1096H106V-846Z" fill="#9F9F9F"/>
<path opacity="0.1" d="M112 -846H111V1096H112V-846Z" fill="#9F9F9F"/>
<path opacity="0.1" d="M118 -846H117V1096H118V-846Z" fill="#9F9F9F"/>
<path opacity="0.1" d="M124 -846H123V1096H124V-846Z" fill="#9F9F9F"/>
<path opacity="0.1" d="M130 -846H129V1096H130V-846Z" fill="#9F9F9F"/>
<path opacity="0.1" d="M136 -846H135V1096H136V-846Z" fill="#9F9F9F"/>
<path opacity="0.1" d="M142 -846H141V1096H142V-846Z" fill="#9F9F9F"/>
<path opacity="0.1" d="M148 -846H147V1096H148V-846Z" fill="#9F9F9F"/>
<path opacity="0.1" d="M154 -846H153V1096H154V-846Z" fill="#9F9F9F"/>
<path opacity="0.1" d="M160 -846H159V1096H160V-846Z" fill="#9F9F9F"/>
<path opacity="0.1" d="M166 -846H165V1096H166V-846Z" fill="#9F9F9F"/>
<path opacity="0.1" d="M172 -846H171V1096H172V-846Z" fill="#9F9F9F"/>
<path opacity="0.1" d="M178 -846H177V1096H178V-846Z" fill="#9F9F9F"/>
<path opacity="0.1" d="M184 -846H183V1096H184V-846Z" fill="#9F9F9F"/>
<path opacity="0.1" d="M190 -846H189V1096H190V-846Z" fill="#9F9F9F"/>
<path opacity="0.1" d="M196 -846H195V1096H196V-846Z" fill="#9F9F9F"/>
<path opacity="0.1" d="M202 -846H201V1096H202V-846Z" fill="#9F9F9F"/>
<path opacity="0.1" d="M208 -846H207V1096H208V-846Z" fill="#9F9F9F"/>
<path opacity="0.1" d="M214 -846H213V1096H214V-846Z" fill="#9F9F9F"/>
<path opacity="0.1" d="M220 -846H219V1096H220V-846Z" fill="#9F9F9F"/>
<path opacity="0.1" d="M226 -846H225V1096H226V-846Z" fill="#9F9F9F"/>
<path opacity="0.1" d="M232 -846H231V1096H232V-846Z" fill="#9F9F9F"/>
<path opacity="0.1" d="M238 -846H237V1096H238V-846Z" fill="#9F9F9F"/>
<path opacity="0.1" d="M244 -846H243V1096H244V-846Z" fill="#9F9F9F"/>
<path opacity="0.1" d="M250 -846H249V1096H250V-846Z" fill="#9F9F9F"/>
<path opacity="0.1" d="M256 -846H255V1096H256V-846Z" fill="#9F9F9F"/>
<path opacity="0.1" d="M262 -846H261V1096H262V-846Z" fill="#9F9F9F"/>
<path opacity="0.1" d="M268 -846H267V1096H268V-846Z" fill="#9F9F9F"/>
<path opacity="0.1" d="M274 -846H273V1096H274V-846Z" fill="#9F9F9F"/>
<path opacity="0.1" d="M280 -846H279V1096H280V-846Z" fill="#9F9F9F"/>
<path opacity="0.1" d="M286 -846H285V1096H286V-846Z" fill="#9F9F9F"/>
<path opacity="0.1" d="M292 -846H291V1096H292V-846Z" fill="#9F9F9F"/>
<path opacity="0.1" d="M298 -846H297V1096H298V-846Z" fill="#9F9F9F"/>
<path opacity="0.1" d="M304 -846H303V1096H304V-846Z" fill="#9F9F9F"/>
<path opacity="0.1" d="M310 -846H309V1096H310V-846Z" fill="#9F9F9F"/>
<path opacity="0.1" d="M316 -846H315V1096H316V-846Z" fill="#9F9F9F"/>
<path opacity="0.1" d="M322 -846H321V1096H322V-846Z" fill="#9F9F9F"/>
<path opacity="0.1" d="M328 -846H327V1096H328V-846Z" fill="#9F9F9F"/>
<path opacity="0.1" d="M334 -846H333V1096H334V-846Z" fill="#9F9F9F"/>
<path opacity="0.1" d="M340 -846H339V1096H340V-846Z" fill="#9F9F9F"/>
<path opacity="0.1" d="M346 -846H345V1096H346V-846Z" fill="#9F9F9F"/>
<path opacity="0.1" d="M352 -846H351V1096H352V-846Z" fill="#9F9F9F"/>
<path opacity="0.1" d="M358 -846H357V1096H358V-846Z" fill="#9F9F9F"/>
<path opacity="0.1" d="M364 -846H363V1096H364V-846Z" fill="#9F9F9F"/>
<path opacity="0.1" d="M370 -846H369V1096H370V-846Z" fill="#9F9F9F"/>
<path opacity="0.1" d="M376 -846H375V1096H376V-846Z" fill="#9F9F9F"/>
<path opacity="0.1" d="M382 -846H381V1096H382V-846Z" fill="#9F9F9F"/>
<path opacity="0.1" d="M388 -846H387V1096H388V-846Z" fill="#9F9F9F"/>
</g>
<defs>
<clipPath id="clip0_638_5297">
<rect width="4320" height="3132" fill="white" transform="translate(-1964 -1080)"/>
</clipPath>
</defs>
</svg>
