<svg width="1140" height="940" viewBox="0 0 1140 940" fill="none" xmlns="http://www.w3.org/2000/svg">
<g clip-path="url(#clip0_646_912)">
<path opacity="0.1" d="M3055 19H-1913V20H3055V19Z" fill="#9F9F9F"/>
<path opacity="0.1" d="M3055 25H-1913V26H3055V25Z" fill="#9F9F9F"/>
<path opacity="0.1" d="M3055 31H-1913V32H3055V31Z" fill="#9F9F9F"/>
<path opacity="0.1" d="M3055 37H-1913V38H3055V37Z" fill="#9F9F9F"/>
<path opacity="0.1" d="M3055 43H-1913V44H3055V43Z" fill="#9F9F9F"/>
<path opacity="0.1" d="M3055 49H-1913V50H3055V49Z" fill="#9F9F9F"/>
<path opacity="0.1" d="M3055 55H-1913V56H3055V55Z" fill="#9F9F9F"/>
<path opacity="0.1" d="M3055 61H-1913V62H3055V61Z" fill="#9F9F9F"/>
<path opacity="0.1" d="M3055 67H-1913V68H3055V67Z" fill="#9F9F9F"/>
<path opacity="0.1" d="M3055 73H-1913V74H3055V73Z" fill="#9F9F9F"/>
<path opacity="0.1" d="M3055 79H-1913V80H3055V79Z" fill="#9F9F9F"/>
<path opacity="0.1" d="M3055 85H-1913V86H3055V85Z" fill="#9F9F9F"/>
<path opacity="0.1" d="M3055 91H-1913V92H3055V91Z" fill="#9F9F9F"/>
<path opacity="0.1" d="M3055 97H-1913V98H3055V97Z" fill="#9F9F9F"/>
<path opacity="0.1" d="M3055 103H-1913V104H3055V103Z" fill="#9F9F9F"/>
<path opacity="0.1" d="M3055 109H-1913V110H3055V109Z" fill="#9F9F9F"/>
<path opacity="0.1" d="M3055 115H-1913V116H3055V115Z" fill="#9F9F9F"/>
<path opacity="0.1" d="M3055 121H-1913V122H3055V121Z" fill="#9F9F9F"/>
<path opacity="0.1" d="M3055 127H-1913V128H3055V127Z" fill="#9F9F9F"/>
<path opacity="0.1" d="M3055 133H-1913V134H3055V133Z" fill="#9F9F9F"/>
<path opacity="0.1" d="M3055 139H-1913V140H3055V139Z" fill="#9F9F9F"/>
<path opacity="0.1" d="M3055 145H-1913V146H3055V145Z" fill="#9F9F9F"/>
<path opacity="0.1" d="M3055 151H-1913V152H3055V151Z" fill="#9F9F9F"/>
<path opacity="0.1" d="M3055 157H-1913V158H3055V157Z" fill="#9F9F9F"/>
<path opacity="0.1" d="M3055 163H-1913V164H3055V163Z" fill="#9F9F9F"/>
<path opacity="0.1" d="M3055 169H-1913V170H3055V169Z" fill="#9F9F9F"/>
<path opacity="0.1" d="M3055 175H-1913V176H3055V175Z" fill="#9F9F9F"/>
<path opacity="0.1" d="M3055 181H-1913V182H3055V181Z" fill="#9F9F9F"/>
<path opacity="0.1" d="M3055 187H-1913V188H3055V187Z" fill="#9F9F9F"/>
<path opacity="0.1" d="M3055 193H-1913V194H3055V193Z" fill="#9F9F9F"/>
<path opacity="0.1" d="M3055 199H-1913V200H3055V199Z" fill="#9F9F9F"/>
<path opacity="0.1" d="M3055 205H-1913V206H3055V205Z" fill="#9F9F9F"/>
<path opacity="0.1" d="M3055 211H-1913V212H3055V211Z" fill="#9F9F9F"/>
<path opacity="0.1" d="M3055 217H-1913V218H3055V217Z" fill="#9F9F9F"/>
<path opacity="0.1" d="M3055 223H-1913V224H3055V223Z" fill="#9F9F9F"/>
<path opacity="0.1" d="M3055 229H-1913V230H3055V229Z" fill="#9F9F9F"/>
<path opacity="0.1" d="M3055 235H-1913V236H3055V235Z" fill="#9F9F9F"/>
<path opacity="0.1" d="M3055 241H-1913V242H3055V241Z" fill="#9F9F9F"/>
<path opacity="0.1" d="M3055 247H-1913V248H3055V247Z" fill="#9F9F9F"/>
<path opacity="0.1" d="M3055 253H-1913V254H3055V253Z" fill="#9F9F9F"/>
<path opacity="0.1" d="M3055 259H-1913V260H3055V259Z" fill="#9F9F9F"/>
<path opacity="0.1" d="M3055 265H-1913V266H3055V265Z" fill="#9F9F9F"/>
<path opacity="0.1" d="M3055 271H-1913V272H3055V271Z" fill="#9F9F9F"/>
<path opacity="0.1" d="M3055 277H-1913V278H3055V277Z" fill="#9F9F9F"/>
<path opacity="0.1" d="M3055 283H-1913V284H3055V283Z" fill="#9F9F9F"/>
<path opacity="0.1" d="M3055 289H-1913V290H3055V289Z" fill="#9F9F9F"/>
<path opacity="0.1" d="M3055 295H-1913V296H3055V295Z" fill="#9F9F9F"/>
<path opacity="0.1" d="M3055 301H-1913V302H3055V301Z" fill="#9F9F9F"/>
<path opacity="0.1" d="M3055 307H-1913V308H3055V307Z" fill="#9F9F9F"/>
<path opacity="0.1" d="M3055 313H-1913V314H3055V313Z" fill="#9F9F9F"/>
<path opacity="0.1" d="M3055 319H-1913V320H3055V319Z" fill="#9F9F9F"/>
<path opacity="0.1" d="M3055 325H-1913V326H3055V325Z" fill="#9F9F9F"/>
<path opacity="0.1" d="M3055 331H-1913V332H3055V331Z" fill="#9F9F9F"/>
<path opacity="0.1" d="M3055 337H-1913V338H3055V337Z" fill="#9F9F9F"/>
<path opacity="0.1" d="M3055 343H-1913V344H3055V343Z" fill="#9F9F9F"/>
<path opacity="0.1" d="M3055 349H-1913V350H3055V349Z" fill="#9F9F9F"/>
<path opacity="0.1" d="M3055 355H-1913V356H3055V355Z" fill="#9F9F9F"/>
<path opacity="0.1" d="M3055 361H-1913V362H3055V361Z" fill="#9F9F9F"/>
<path opacity="0.1" d="M3055 367H-1913V368H3055V367Z" fill="#9F9F9F"/>
<path opacity="0.1" d="M3055 373H-1913V374H3055V373Z" fill="#9F9F9F"/>
<path opacity="0.1" d="M3055 379H-1913V380H3055V379Z" fill="#9F9F9F"/>
<path opacity="0.1" d="M3055 385H-1913V386H3055V385Z" fill="#9F9F9F"/>
<path opacity="0.1" d="M3055 391H-1913V392H3055V391Z" fill="#9F9F9F"/>
<path opacity="0.1" d="M3055 397H-1913V398H3055V397Z" fill="#9F9F9F"/>
<path opacity="0.1" d="M3055 403H-1913V404H3055V403Z" fill="#9F9F9F"/>
<path opacity="0.1" d="M3055 409H-1913V410H3055V409Z" fill="#9F9F9F"/>
<path opacity="0.1" d="M3055 415H-1913V416H3055V415Z" fill="#9F9F9F"/>
<path opacity="0.1" d="M3055 421H-1913V422H3055V421Z" fill="#9F9F9F"/>
<path opacity="0.1" d="M3055 427H-1913V428H3055V427Z" fill="#9F9F9F"/>
<path opacity="0.1" d="M3055 433H-1913V434H3055V433Z" fill="#9F9F9F"/>
<path opacity="0.1" d="M3055 439H-1913V440H3055V439Z" fill="#9F9F9F"/>
<path opacity="0.1" d="M3055 445H-1913V446H3055V445Z" fill="#9F9F9F"/>
<path opacity="0.1" d="M3055 451H-1913V452H3055V451Z" fill="#9F9F9F"/>
<path opacity="0.1" d="M3055 457H-1913V458H3055V457Z" fill="#9F9F9F"/>
<path opacity="0.1" d="M3055 463H-1913V464H3055V463Z" fill="#9F9F9F"/>
<path opacity="0.1" d="M3055 469H-1913V470H3055V469Z" fill="#9F9F9F"/>
<path opacity="0.1" d="M3055 475H-1913V476H3055V475Z" fill="#9F9F9F"/>
<path opacity="0.1" d="M3055 481H-1913V482H3055V481Z" fill="#9F9F9F"/>
<path opacity="0.1" d="M3055 487H-1913V488H3055V487Z" fill="#9F9F9F"/>
<path opacity="0.1" d="M3055 493H-1913V494H3055V493Z" fill="#9F9F9F"/>
<path opacity="0.1" d="M3055 499H-1913V500H3055V499Z" fill="#9F9F9F"/>
<path opacity="0.1" d="M3055 505H-1913V506H3055V505Z" fill="#9F9F9F"/>
<path opacity="0.1" d="M3055 511H-1913V512H3055V511Z" fill="#9F9F9F"/>
<path opacity="0.1" d="M3055 517H-1913V518H3055V517Z" fill="#9F9F9F"/>
<path opacity="0.1" d="M3055 523H-1913V524H3055V523Z" fill="#9F9F9F"/>
<path opacity="0.1" d="M3055 529H-1913V530H3055V529Z" fill="#9F9F9F"/>
<path opacity="0.1" d="M3055 535H-1913V536H3055V535Z" fill="#9F9F9F"/>
<path opacity="0.1" d="M3055 541H-1913V542H3055V541Z" fill="#9F9F9F"/>
<path opacity="0.1" d="M3055 547H-1913V548H3055V547Z" fill="#9F9F9F"/>
<path opacity="0.1" d="M3055 553H-1913V554H3055V553Z" fill="#9F9F9F"/>
<path opacity="0.1" d="M3055 559H-1913V560H3055V559Z" fill="#9F9F9F"/>
<path opacity="0.1" d="M3055 565H-1913V566H3055V565Z" fill="#9F9F9F"/>
<path opacity="0.1" d="M3055 571H-1913V572H3055V571Z" fill="#9F9F9F"/>
<path opacity="0.1" d="M3055 577H-1913V578H3055V577Z" fill="#9F9F9F"/>
<path opacity="0.1" d="M3055 583H-1913V584H3055V583Z" fill="#9F9F9F"/>
<path opacity="0.1" d="M3055 589H-1913V590H3055V589Z" fill="#9F9F9F"/>
<path opacity="0.1" d="M3055 595H-1913V596H3055V595Z" fill="#9F9F9F"/>
<path opacity="0.1" d="M3055 601H-1913V602H3055V601Z" fill="#9F9F9F"/>
<path opacity="0.1" d="M3055 607H-1913V608H3055V607Z" fill="#9F9F9F"/>
<path opacity="0.1" d="M3055 613H-1913V614H3055V613Z" fill="#9F9F9F"/>
<path opacity="0.1" d="M3055 619H-1913V620H3055V619Z" fill="#9F9F9F"/>
<path opacity="0.1" d="M3055 625H-1913V626H3055V625Z" fill="#9F9F9F"/>
<path opacity="0.1" d="M3055 631H-1913V632H3055V631Z" fill="#9F9F9F"/>
<path opacity="0.1" d="M3055 637H-1913V638H3055V637Z" fill="#9F9F9F"/>
<path opacity="0.1" d="M3055 643H-1913V644H3055V643Z" fill="#9F9F9F"/>
<path opacity="0.1" d="M3055 649H-1913V650H3055V649Z" fill="#9F9F9F"/>
<path opacity="0.1" d="M3055 655H-1913V656H3055V655Z" fill="#9F9F9F"/>
<path opacity="0.1" d="M3055 661H-1913V662H3055V661Z" fill="#9F9F9F"/>
<path opacity="0.1" d="M3055 667H-1913V668H3055V667Z" fill="#9F9F9F"/>
<path opacity="0.1" d="M3055 673H-1913V674H3055V673Z" fill="#9F9F9F"/>
<path opacity="0.1" d="M3055 679H-1913V680H3055V679Z" fill="#9F9F9F"/>
<path opacity="0.1" d="M3055 685H-1913V686H3055V685Z" fill="#9F9F9F"/>
<path opacity="0.1" d="M3055 691H-1913V692H3055V691Z" fill="#9F9F9F"/>
<path opacity="0.1" d="M3055 697H-1913V698H3055V697Z" fill="#9F9F9F"/>
<path opacity="0.1" d="M3055 703H-1913V704H3055V703Z" fill="#9F9F9F"/>
<path opacity="0.1" d="M3055 709H-1913V710H3055V709Z" fill="#9F9F9F"/>
<path opacity="0.1" d="M3055 715H-1913V716H3055V715Z" fill="#9F9F9F"/>
<path opacity="0.1" d="M3055 721H-1913V722H3055V721Z" fill="#9F9F9F"/>
<path opacity="0.1" d="M3055 727H-1913V728H3055V727Z" fill="#9F9F9F"/>
<path opacity="0.1" d="M3055 733H-1913V734H3055V733Z" fill="#9F9F9F"/>
<path opacity="0.1" d="M3055 739H-1913V740H3055V739Z" fill="#9F9F9F"/>
<path opacity="0.1" d="M3055 745H-1913V746H3055V745Z" fill="#9F9F9F"/>
<path opacity="0.1" d="M3055 751H-1913V752H3055V751Z" fill="#9F9F9F"/>
<path opacity="0.1" d="M3055 757H-1913V758H3055V757Z" fill="#9F9F9F"/>
<path opacity="0.1" d="M3055 763H-1913V764H3055V763Z" fill="#9F9F9F"/>
<path opacity="0.1" d="M3055 769H-1913V770H3055V769Z" fill="#9F9F9F"/>
<path opacity="0.1" d="M3055 775H-1913V776H3055V775Z" fill="#9F9F9F"/>
<path opacity="0.1" d="M3055 781H-1913V782H3055V781Z" fill="#9F9F9F"/>
<path opacity="0.1" d="M3055 787H-1913V788H3055V787Z" fill="#9F9F9F"/>
<path opacity="0.1" d="M3055 793H-1913V794H3055V793Z" fill="#9F9F9F"/>
<path opacity="0.1" d="M3055 799H-1913V800H3055V799Z" fill="#9F9F9F"/>
<path opacity="0.1" d="M3055 805H-1913V806H3055V805Z" fill="#9F9F9F"/>
<path opacity="0.1" d="M3055 811H-1913V812H3055V811Z" fill="#9F9F9F"/>
<path opacity="0.1" d="M3055 817H-1913V818H3055V817Z" fill="#9F9F9F"/>
<path opacity="0.1" d="M3055 823H-1913V824H3055V823Z" fill="#9F9F9F"/>
<path opacity="0.1" d="M3055 829H-1913V830H3055V829Z" fill="#9F9F9F"/>
<path opacity="0.1" d="M3055 835H-1913V836H3055V835Z" fill="#9F9F9F"/>
<path opacity="0.1" d="M3055 841H-1913V842H3055V841Z" fill="#9F9F9F"/>
<path opacity="0.1" d="M3055 847H-1913V848H3055V847Z" fill="#9F9F9F"/>
<path opacity="0.1" d="M3055 853H-1913V854H3055V853Z" fill="#9F9F9F"/>
<path opacity="0.1" d="M3055 859H-1913V860H3055V859Z" fill="#9F9F9F"/>
<path opacity="0.1" d="M3055 865H-1913V866H3055V865Z" fill="#9F9F9F"/>
<path opacity="0.1" d="M3055 871H-1913V872H3055V871Z" fill="#9F9F9F"/>
<path opacity="0.1" d="M3055 877H-1913V878H3055V877Z" fill="#9F9F9F"/>
<path opacity="0.1" d="M3055 883H-1913V884H3055V883Z" fill="#9F9F9F"/>
<path opacity="0.1" d="M3055 889H-1913V890H3055V889Z" fill="#9F9F9F"/>
<path opacity="0.1" d="M3055 895H-1913V896H3055V895Z" fill="#9F9F9F"/>
<path opacity="0.1" d="M3055 901H-1913V902H3055V901Z" fill="#9F9F9F"/>
<path opacity="0.1" d="M3055 907H-1913V908H3055V907Z" fill="#9F9F9F"/>
<path opacity="0.1" d="M3055 913H-1913V914H3055V913Z" fill="#9F9F9F"/>
<path opacity="0.1" d="M3055 919H-1913V920H3055V919Z" fill="#9F9F9F"/>
<path opacity="0.1" d="M6 -863H5V1079H6V-863Z" fill="#9F9F9F"/>
<path opacity="0.1" d="M12 -863H11V1079H12V-863Z" fill="#9F9F9F"/>
<path opacity="0.1" d="M18 -863H17V1079H18V-863Z" fill="#9F9F9F"/>
<path opacity="0.1" d="M24 -863H23V1079H24V-863Z" fill="#9F9F9F"/>
<path opacity="0.1" d="M30 -863H29V1079H30V-863Z" fill="#9F9F9F"/>
<path opacity="0.1" d="M36 -863H35V1079H36V-863Z" fill="#9F9F9F"/>
<path opacity="0.1" d="M42 -863H41V1079H42V-863Z" fill="#9F9F9F"/>
<path opacity="0.1" d="M48 -863H47V1079H48V-863Z" fill="#9F9F9F"/>
<path opacity="0.1" d="M54 -863H53V1079H54V-863Z" fill="#9F9F9F"/>
<path opacity="0.1" d="M60 -863H59V1079H60V-863Z" fill="#9F9F9F"/>
<path opacity="0.1" d="M66 -863H65V1079H66V-863Z" fill="#9F9F9F"/>
<path opacity="0.1" d="M72 -863H71V1079H72V-863Z" fill="#9F9F9F"/>
<path opacity="0.1" d="M78 -863H77V1079H78V-863Z" fill="#9F9F9F"/>
<path opacity="0.1" d="M84 -863H83V1079H84V-863Z" fill="#9F9F9F"/>
<path opacity="0.1" d="M90 -863H89V1079H90V-863Z" fill="#9F9F9F"/>
<path opacity="0.1" d="M96 -863H95V1079H96V-863Z" fill="#9F9F9F"/>
<path opacity="0.1" d="M102 -863H101V1079H102V-863Z" fill="#9F9F9F"/>
<path opacity="0.1" d="M108 -863H107V1079H108V-863Z" fill="#9F9F9F"/>
<path opacity="0.1" d="M114 -863H113V1079H114V-863Z" fill="#9F9F9F"/>
<path opacity="0.1" d="M120 -863H119V1079H120V-863Z" fill="#9F9F9F"/>
<path opacity="0.1" d="M126 -863H125V1079H126V-863Z" fill="#9F9F9F"/>
<path opacity="0.1" d="M132 -863H131V1079H132V-863Z" fill="#9F9F9F"/>
<path opacity="0.1" d="M138 -863H137V1079H138V-863Z" fill="#9F9F9F"/>
<path opacity="0.1" d="M144 -863H143V1079H144V-863Z" fill="#9F9F9F"/>
<path opacity="0.1" d="M150 -863H149V1079H150V-863Z" fill="#9F9F9F"/>
<path opacity="0.1" d="M156 -863H155V1079H156V-863Z" fill="#9F9F9F"/>
<path opacity="0.1" d="M162 -863H161V1079H162V-863Z" fill="#9F9F9F"/>
<path opacity="0.1" d="M168 -863H167V1079H168V-863Z" fill="#9F9F9F"/>
<path opacity="0.1" d="M174 -863H173V1079H174V-863Z" fill="#9F9F9F"/>
<path opacity="0.1" d="M180 -863H179V1079H180V-863Z" fill="#9F9F9F"/>
<path opacity="0.1" d="M186 -863H185V1079H186V-863Z" fill="#9F9F9F"/>
<path opacity="0.1" d="M192 -863H191V1079H192V-863Z" fill="#9F9F9F"/>
<path opacity="0.1" d="M198 -863H197V1079H198V-863Z" fill="#9F9F9F"/>
<path opacity="0.1" d="M204 -863H203V1079H204V-863Z" fill="#9F9F9F"/>
<path opacity="0.1" d="M210 -863H209V1079H210V-863Z" fill="#9F9F9F"/>
<path opacity="0.1" d="M216 -863H215V1079H216V-863Z" fill="#9F9F9F"/>
<path opacity="0.1" d="M222 -863H221V1079H222V-863Z" fill="#9F9F9F"/>
<path opacity="0.1" d="M228 -863H227V1079H228V-863Z" fill="#9F9F9F"/>
<path opacity="0.1" d="M234 -863H233V1079H234V-863Z" fill="#9F9F9F"/>
<path opacity="0.1" d="M240 -863H239V1079H240V-863Z" fill="#9F9F9F"/>
<path opacity="0.1" d="M246 -863H245V1079H246V-863Z" fill="#9F9F9F"/>
<path opacity="0.1" d="M252 -863H251V1079H252V-863Z" fill="#9F9F9F"/>
<path opacity="0.1" d="M258 -863H257V1079H258V-863Z" fill="#9F9F9F"/>
<path opacity="0.1" d="M264 -863H263V1079H264V-863Z" fill="#9F9F9F"/>
<path opacity="0.1" d="M270 -863H269V1079H270V-863Z" fill="#9F9F9F"/>
<path opacity="0.1" d="M276 -863H275V1079H276V-863Z" fill="#9F9F9F"/>
<path opacity="0.1" d="M282 -863H281V1079H282V-863Z" fill="#9F9F9F"/>
<path opacity="0.1" d="M288 -863H287V1079H288V-863Z" fill="#9F9F9F"/>
<path opacity="0.1" d="M294 -863H293V1079H294V-863Z" fill="#9F9F9F"/>
<path opacity="0.1" d="M300 -863H299V1079H300V-863Z" fill="#9F9F9F"/>
<path opacity="0.1" d="M306 -863H305V1079H306V-863Z" fill="#9F9F9F"/>
<path opacity="0.1" d="M312 -863H311V1079H312V-863Z" fill="#9F9F9F"/>
<path opacity="0.1" d="M318 -863H317V1079H318V-863Z" fill="#9F9F9F"/>
<path opacity="0.1" d="M324 -863H323V1079H324V-863Z" fill="#9F9F9F"/>
<path opacity="0.1" d="M330 -863H329V1079H330V-863Z" fill="#9F9F9F"/>
<path opacity="0.1" d="M336 -863H335V1079H336V-863Z" fill="#9F9F9F"/>
<path opacity="0.1" d="M342 -863H341V1079H342V-863Z" fill="#9F9F9F"/>
<path opacity="0.1" d="M348 -863H347V1079H348V-863Z" fill="#9F9F9F"/>
<path opacity="0.1" d="M354 -863H353V1079H354V-863Z" fill="#9F9F9F"/>
<path opacity="0.1" d="M360 -863H359V1079H360V-863Z" fill="#9F9F9F"/>
<path opacity="0.1" d="M366 -863H365V1079H366V-863Z" fill="#9F9F9F"/>
<path opacity="0.1" d="M372 -863H371V1079H372V-863Z" fill="#9F9F9F"/>
<path opacity="0.1" d="M378 -863H377V1079H378V-863Z" fill="#9F9F9F"/>
<path opacity="0.1" d="M384 -863H383V1079H384V-863Z" fill="#9F9F9F"/>
<path opacity="0.1" d="M390 -863H389V1079H390V-863Z" fill="#9F9F9F"/>
<path opacity="0.1" d="M396 -863H395V1079H396V-863Z" fill="#9F9F9F"/>
<path opacity="0.1" d="M402 -863H401V1079H402V-863Z" fill="#9F9F9F"/>
<path opacity="0.1" d="M408 -863H407V1079H408V-863Z" fill="#9F9F9F"/>
<path opacity="0.1" d="M414 -863H413V1079H414V-863Z" fill="#9F9F9F"/>
<path opacity="0.1" d="M420 -863H419V1079H420V-863Z" fill="#9F9F9F"/>
<path opacity="0.1" d="M426 -863H425V1079H426V-863Z" fill="#9F9F9F"/>
<path opacity="0.1" d="M432 -863H431V1079H432V-863Z" fill="#9F9F9F"/>
<path opacity="0.1" d="M438 -863H437V1079H438V-863Z" fill="#9F9F9F"/>
<path opacity="0.1" d="M444 -863H443V1079H444V-863Z" fill="#9F9F9F"/>
<path opacity="0.1" d="M450 -863H449V1079H450V-863Z" fill="#9F9F9F"/>
<path opacity="0.1" d="M456 -863H455V1079H456V-863Z" fill="#9F9F9F"/>
<path opacity="0.1" d="M462 -863H461V1079H462V-863Z" fill="#9F9F9F"/>
<path opacity="0.1" d="M468 -863H467V1079H468V-863Z" fill="#9F9F9F"/>
<path opacity="0.1" d="M474 -863H473V1079H474V-863Z" fill="#9F9F9F"/>
<path opacity="0.1" d="M480 -863H479V1079H480V-863Z" fill="#9F9F9F"/>
<path opacity="0.1" d="M486 -863H485V1079H486V-863Z" fill="#9F9F9F"/>
<path opacity="0.1" d="M492 -863H491V1079H492V-863Z" fill="#9F9F9F"/>
<path opacity="0.1" d="M498 -863H497V1079H498V-863Z" fill="#9F9F9F"/>
<path opacity="0.1" d="M504 -863H503V1079H504V-863Z" fill="#9F9F9F"/>
<path opacity="0.1" d="M510 -863H509V1079H510V-863Z" fill="#9F9F9F"/>
<path opacity="0.1" d="M516 -863H515V1079H516V-863Z" fill="#9F9F9F"/>
<path opacity="0.1" d="M522 -863H521V1079H522V-863Z" fill="#9F9F9F"/>
<path opacity="0.1" d="M528 -863H527V1079H528V-863Z" fill="#9F9F9F"/>
<path opacity="0.1" d="M534 -863H533V1079H534V-863Z" fill="#9F9F9F"/>
<path opacity="0.1" d="M540 -863H539V1079H540V-863Z" fill="#9F9F9F"/>
<path opacity="0.1" d="M546 -863H545V1079H546V-863Z" fill="#9F9F9F"/>
<path opacity="0.1" d="M552 -863H551V1079H552V-863Z" fill="#9F9F9F"/>
<path opacity="0.1" d="M558 -863H557V1079H558V-863Z" fill="#9F9F9F"/>
<path opacity="0.1" d="M564 -863H563V1079H564V-863Z" fill="#9F9F9F"/>
<path opacity="0.1" d="M570 -863H569V1079H570V-863Z" fill="#9F9F9F"/>
<path opacity="0.1" d="M576 -863H575V1079H576V-863Z" fill="#9F9F9F"/>
<path opacity="0.1" d="M582 -863H581V1079H582V-863Z" fill="#9F9F9F"/>
<path opacity="0.1" d="M588 -863H587V1079H588V-863Z" fill="#9F9F9F"/>
<path opacity="0.1" d="M594 -863H593V1079H594V-863Z" fill="#9F9F9F"/>
<path opacity="0.1" d="M600 -863H599V1079H600V-863Z" fill="#9F9F9F"/>
<path opacity="0.1" d="M606 -863H605V1079H606V-863Z" fill="#9F9F9F"/>
<path opacity="0.1" d="M612 -863H611V1079H612V-863Z" fill="#9F9F9F"/>
<path opacity="0.1" d="M618 -863H617V1079H618V-863Z" fill="#9F9F9F"/>
<path opacity="0.1" d="M624 -863H623V1079H624V-863Z" fill="#9F9F9F"/>
<path opacity="0.1" d="M630 -863H629V1079H630V-863Z" fill="#9F9F9F"/>
<path opacity="0.1" d="M636 -863H635V1079H636V-863Z" fill="#9F9F9F"/>
<path opacity="0.1" d="M642 -863H641V1079H642V-863Z" fill="#9F9F9F"/>
<path opacity="0.1" d="M648 -863H647V1079H648V-863Z" fill="#9F9F9F"/>
<path opacity="0.1" d="M654 -863H653V1079H654V-863Z" fill="#9F9F9F"/>
<path opacity="0.1" d="M660 -863H659V1079H660V-863Z" fill="#9F9F9F"/>
<path opacity="0.1" d="M666 -863H665V1079H666V-863Z" fill="#9F9F9F"/>
<path opacity="0.1" d="M672 -863H671V1079H672V-863Z" fill="#9F9F9F"/>
<path opacity="0.1" d="M678 -863H677V1079H678V-863Z" fill="#9F9F9F"/>
<path opacity="0.1" d="M684 -863H683V1079H684V-863Z" fill="#9F9F9F"/>
<path opacity="0.1" d="M690 -863H689V1079H690V-863Z" fill="#9F9F9F"/>
<path opacity="0.1" d="M696 -863H695V1079H696V-863Z" fill="#9F9F9F"/>
<path opacity="0.1" d="M702 -863H701V1079H702V-863Z" fill="#9F9F9F"/>
<path opacity="0.1" d="M708 -863H707V1079H708V-863Z" fill="#9F9F9F"/>
<path opacity="0.1" d="M714 -863H713V1079H714V-863Z" fill="#9F9F9F"/>
<path opacity="0.1" d="M720 -863H719V1079H720V-863Z" fill="#9F9F9F"/>
<path opacity="0.1" d="M726 -863H725V1079H726V-863Z" fill="#9F9F9F"/>
<path opacity="0.1" d="M732 -863H731V1079H732V-863Z" fill="#9F9F9F"/>
<path opacity="0.1" d="M738 -863H737V1079H738V-863Z" fill="#9F9F9F"/>
<path opacity="0.1" d="M744 -863H743V1079H744V-863Z" fill="#9F9F9F"/>
<path opacity="0.1" d="M750 -863H749V1079H750V-863Z" fill="#9F9F9F"/>
<path opacity="0.1" d="M756 -863H755V1079H756V-863Z" fill="#9F9F9F"/>
<path opacity="0.1" d="M762 -863H761V1079H762V-863Z" fill="#9F9F9F"/>
<path opacity="0.1" d="M768 -863H767V1079H768V-863Z" fill="#9F9F9F"/>
<path opacity="0.1" d="M774 -863H773V1079H774V-863Z" fill="#9F9F9F"/>
<path opacity="0.1" d="M780 -863H779V1079H780V-863Z" fill="#9F9F9F"/>
<path opacity="0.1" d="M786 -863H785V1079H786V-863Z" fill="#9F9F9F"/>
<path opacity="0.1" d="M792 -863H791V1079H792V-863Z" fill="#9F9F9F"/>
<path opacity="0.1" d="M798 -863H797V1079H798V-863Z" fill="#9F9F9F"/>
<path opacity="0.1" d="M804 -863H803V1079H804V-863Z" fill="#9F9F9F"/>
<path opacity="0.1" d="M810 -863H809V1079H810V-863Z" fill="#9F9F9F"/>
<path opacity="0.1" d="M816 -863H815V1079H816V-863Z" fill="#9F9F9F"/>
<path opacity="0.1" d="M822 -863H821V1079H822V-863Z" fill="#9F9F9F"/>
<path opacity="0.1" d="M828 -863H827V1079H828V-863Z" fill="#9F9F9F"/>
<path opacity="0.1" d="M834 -863H833V1079H834V-863Z" fill="#9F9F9F"/>
<path opacity="0.1" d="M840 -863H839V1079H840V-863Z" fill="#9F9F9F"/>
<path opacity="0.1" d="M846 -863H845V1079H846V-863Z" fill="#9F9F9F"/>
<path opacity="0.1" d="M852 -863H851V1079H852V-863Z" fill="#9F9F9F"/>
<path opacity="0.1" d="M858 -863H857V1079H858V-863Z" fill="#9F9F9F"/>
<path opacity="0.1" d="M864 -863H863V1079H864V-863Z" fill="#9F9F9F"/>
<path opacity="0.1" d="M870 -863H869V1079H870V-863Z" fill="#9F9F9F"/>
<path opacity="0.1" d="M876 -863H875V1079H876V-863Z" fill="#9F9F9F"/>
<path opacity="0.1" d="M882 -863H881V1079H882V-863Z" fill="#9F9F9F"/>
<path opacity="0.1" d="M888 -863H887V1079H888V-863Z" fill="#9F9F9F"/>
<path opacity="0.1" d="M894 -863H893V1079H894V-863Z" fill="#9F9F9F"/>
<path opacity="0.1" d="M900 -863H899V1079H900V-863Z" fill="#9F9F9F"/>
<path opacity="0.1" d="M906 -863H905V1079H906V-863Z" fill="#9F9F9F"/>
<path opacity="0.1" d="M912 -863H911V1079H912V-863Z" fill="#9F9F9F"/>
<path opacity="0.1" d="M918 -863H917V1079H918V-863Z" fill="#9F9F9F"/>
<path opacity="0.1" d="M924 -863H923V1079H924V-863Z" fill="#9F9F9F"/>
<path opacity="0.1" d="M930 -863H929V1079H930V-863Z" fill="#9F9F9F"/>
<path opacity="0.1" d="M936 -863H935V1079H936V-863Z" fill="#9F9F9F"/>
<path opacity="0.1" d="M942 -863H941V1079H942V-863Z" fill="#9F9F9F"/>
<path opacity="0.1" d="M948 -863H947V1079H948V-863Z" fill="#9F9F9F"/>
<path opacity="0.1" d="M954 -863H953V1079H954V-863Z" fill="#9F9F9F"/>
<path opacity="0.1" d="M960 -863H959V1079H960V-863Z" fill="#9F9F9F"/>
<path opacity="0.1" d="M966 -863H965V1079H966V-863Z" fill="#9F9F9F"/>
<path opacity="0.1" d="M972 -863H971V1079H972V-863Z" fill="#9F9F9F"/>
<path opacity="0.1" d="M978 -863H977V1079H978V-863Z" fill="#9F9F9F"/>
<path opacity="0.1" d="M984 -863H983V1079H984V-863Z" fill="#9F9F9F"/>
<path opacity="0.1" d="M990 -863H989V1079H990V-863Z" fill="#9F9F9F"/>
<path opacity="0.1" d="M996 -863H995V1079H996V-863Z" fill="#9F9F9F"/>
<path opacity="0.1" d="M1002 -863H1001V1079H1002V-863Z" fill="#9F9F9F"/>
<path opacity="0.1" d="M1008 -863H1007V1079H1008V-863Z" fill="#9F9F9F"/>
<path opacity="0.1" d="M1014 -863H1013V1079H1014V-863Z" fill="#9F9F9F"/>
<path opacity="0.1" d="M1020 -863H1019V1079H1020V-863Z" fill="#9F9F9F"/>
<path opacity="0.1" d="M1026 -863H1025V1079H1026V-863Z" fill="#9F9F9F"/>
<path opacity="0.1" d="M1032 -863H1031V1079H1032V-863Z" fill="#9F9F9F"/>
<path opacity="0.1" d="M1038 -863H1037V1079H1038V-863Z" fill="#9F9F9F"/>
<path opacity="0.1" d="M1044 -863H1043V1079H1044V-863Z" fill="#9F9F9F"/>
<path opacity="0.1" d="M1050 -863H1049V1079H1050V-863Z" fill="#9F9F9F"/>
<path opacity="0.1" d="M1056 -863H1055V1079H1056V-863Z" fill="#9F9F9F"/>
<path opacity="0.1" d="M1062 -863H1061V1079H1062V-863Z" fill="#9F9F9F"/>
<path opacity="0.1" d="M1068 -863H1067V1079H1068V-863Z" fill="#9F9F9F"/>
<path opacity="0.1" d="M1074 -863H1073V1079H1074V-863Z" fill="#9F9F9F"/>
<path opacity="0.1" d="M1080 -863H1079V1079H1080V-863Z" fill="#9F9F9F"/>
<path opacity="0.1" d="M1086 -863H1085V1079H1086V-863Z" fill="#9F9F9F"/>
<path opacity="0.1" d="M1092 -863H1091V1079H1092V-863Z" fill="#9F9F9F"/>
<path opacity="0.1" d="M1098 -863H1097V1079H1098V-863Z" fill="#9F9F9F"/>
<path opacity="0.1" d="M1104 -863H1103V1079H1104V-863Z" fill="#9F9F9F"/>
<path opacity="0.1" d="M1110 -863H1109V1079H1110V-863Z" fill="#9F9F9F"/>
<path opacity="0.1" d="M1116 -863H1115V1079H1116V-863Z" fill="#9F9F9F"/>
<path opacity="0.1" d="M1122 -863H1121V1079H1122V-863Z" fill="#9F9F9F"/>
<path opacity="0.1" d="M1128 -863H1127V1079H1128V-863Z" fill="#9F9F9F"/>
<path opacity="0.1" d="M1134 -863H1133V1079H1134V-863Z" fill="#9F9F9F"/>
<path opacity="0.1" d="M1140 -863H1139V1079H1140V-863Z" fill="#9F9F9F"/>
</g>
<defs>
<clipPath id="clip0_646_912">
<rect width="1140" height="940" fill="white"/>
</clipPath>
</defs>
</svg>
