<svg width="58" height="24" viewBox="0 0 58 24" fill="none" xmlns="http://www.w3.org/2000/svg">
<path d="M6.64773 19.1989C5.50189 19.1989 4.4839 19.0024 3.59375 18.6094C2.70833 18.2116 2.01231 17.6648 1.50568 16.9688C0.999053 16.2727 0.743371 15.4725 0.738636 14.5682H4.71591C4.72064 14.8475 4.80587 15.0985 4.97159 15.321C5.14205 15.5388 5.37405 15.7093 5.66761 15.8324C5.96117 15.9555 6.29735 16.017 6.67614 16.017C7.04072 16.017 7.36269 15.9531 7.64205 15.8253C7.9214 15.6927 8.1392 15.5104 8.29545 15.2784C8.4517 15.0464 8.52746 14.7812 8.52273 14.483C8.52746 14.1894 8.4375 13.929 8.25284 13.7017C8.07292 13.4744 7.8196 13.2969 7.4929 13.169C7.16619 13.0412 6.78977 12.9773 6.36364 12.9773H4.88636V10.25H6.36364C6.75663 10.25 7.10227 10.1861 7.40057 10.0582C7.7036 9.9304 7.93797 9.75284 8.10369 9.52557C8.27415 9.2983 8.35701 9.03788 8.35227 8.74432C8.35701 8.46023 8.28835 8.20928 8.14631 7.99148C8.00426 7.77367 7.8054 7.60322 7.54972 7.48011C7.29877 7.35701 7.00758 7.29545 6.67614 7.29545C6.31629 7.29545 5.99432 7.35937 5.71023 7.48722C5.43087 7.61506 5.2107 7.79261 5.04972 8.01989C4.88873 8.24716 4.80587 8.50758 4.80114 8.80114H1.02273C1.02746 7.91098 1.27131 7.125 1.75426 6.44318C2.24195 5.76136 2.90956 5.22633 3.7571 4.83807C4.60464 4.44981 5.57765 4.25568 6.67614 4.25568C7.75095 4.25568 8.70028 4.43797 9.52415 4.80256C10.3527 5.16714 10.9991 5.66903 11.4631 6.30824C11.9318 6.94271 12.1638 7.66951 12.1591 8.48864C12.1686 9.30303 11.8892 9.97064 11.321 10.4915C10.7576 11.0123 10.0426 11.3201 9.17614 11.4148V11.5284C10.3504 11.6562 11.2334 12.0161 11.8253 12.608C12.4171 13.1951 12.7083 13.9337 12.6989 14.8239C12.7036 15.6761 12.4479 16.4313 11.9318 17.0895C11.4205 17.7476 10.7079 18.2637 9.79403 18.6378C8.88494 19.0118 7.83617 19.1989 6.64773 19.1989ZM20.0302 19H14.4336V4.45455H19.9734C21.4696 4.45455 22.7622 4.74574 23.8512 5.32812C24.945 5.90578 25.7878 6.73911 26.3796 7.82812C26.9762 8.91241 27.2745 10.2121 27.2745 11.7273C27.2745 13.2424 26.9786 14.5445 26.3867 15.6335C25.7949 16.7178 24.9568 17.5511 23.8725 18.1335C22.7882 18.7112 21.5075 19 20.0302 19ZM18.3825 15.6477H19.8881C20.6078 15.6477 21.221 15.5317 21.7276 15.2997C22.239 15.0677 22.6272 14.6676 22.8924 14.0994C23.1623 13.5312 23.2972 12.7405 23.2972 11.7273C23.2972 10.714 23.1599 9.9233 22.8853 9.35511C22.6154 8.78693 22.2177 8.38684 21.6921 8.15483C21.1713 7.92282 20.5321 7.80682 19.7745 7.80682H18.3825V15.6477Z" fill="black"/>
<path d="M29.375 13V7.18182H31.8864C32.3182 7.18182 32.696 7.26705 33.0199 7.4375C33.3438 7.60795 33.5956 7.84754 33.7756 8.15625C33.9555 8.46496 34.0455 8.82576 34.0455 9.23864C34.0455 9.6553 33.9527 10.0161 33.767 10.321C33.5833 10.6259 33.3248 10.8608 32.9915 11.0256C32.66 11.1903 32.2727 11.2727 31.8295 11.2727H30.3295V10.0455H31.5114C31.697 10.0455 31.8551 10.0133 31.9858 9.94886C32.1184 9.88258 32.2197 9.78883 32.2898 9.66761C32.3617 9.5464 32.3977 9.40341 32.3977 9.23864C32.3977 9.07197 32.3617 8.92992 32.2898 8.8125C32.2197 8.69318 32.1184 8.60227 31.9858 8.53977C31.8551 8.47538 31.697 8.44318 31.5114 8.44318H30.9545V13H29.375ZM34.6477 13V8.63636H36.1705V9.46591H36.2159C36.2955 9.15909 36.4214 8.93466 36.5938 8.79261C36.768 8.65057 36.9716 8.57955 37.2045 8.57955C37.2727 8.57955 37.34 8.58523 37.4062 8.59659C37.4744 8.60606 37.5398 8.62027 37.6023 8.6392V9.97727C37.5246 9.95076 37.429 9.93087 37.3153 9.91761C37.2017 9.90436 37.1042 9.89773 37.0227 9.89773C36.8693 9.89773 36.7311 9.93277 36.608 10.0028C36.4867 10.071 36.3911 10.1676 36.321 10.2926C36.2509 10.4157 36.2159 10.5606 36.2159 10.7273V13H34.6477ZM38.1165 13V8.63636H39.6847V13H38.1165ZM38.9006 8.18182C38.6884 8.18182 38.5066 8.11174 38.3551 7.97159C38.2036 7.83144 38.1278 7.66288 38.1278 7.46591C38.1278 7.26894 38.2036 7.10038 38.3551 6.96023C38.5066 6.82008 38.6884 6.75 38.9006 6.75C39.1146 6.75 39.2964 6.82008 39.446 6.96023C39.5975 7.10038 39.6733 7.26894 39.6733 7.46591C39.6733 7.66288 39.5975 7.83144 39.446 7.97159C39.2964 8.11174 39.1146 8.18182 38.9006 8.18182ZM42.0518 10.5455V13H40.4837V8.63636H41.9723V9.46591H42.0178C42.1125 9.18939 42.2791 8.97254 42.5178 8.81534C42.7583 8.65814 43.0386 8.57955 43.3587 8.57955C43.6674 8.57955 43.9354 8.65057 44.1626 8.79261C44.3918 8.93277 44.5689 9.12595 44.6939 9.37216C44.8208 9.61837 44.8833 9.89962 44.8814 10.2159V13H43.3132V10.5455C43.3151 10.3295 43.2602 10.16 43.1484 10.0369C43.0386 9.91383 42.8852 9.85227 42.6882 9.85227C42.5594 9.85227 42.4467 9.88068 42.3501 9.9375C42.2554 9.99242 42.1825 10.072 42.1314 10.1761C42.0803 10.2784 42.0537 10.4015 42.0518 10.5455ZM48.2578 8.63636V9.77273H45.3828V8.63636H48.2578ZM45.9396 7.59091H47.5078V11.5966C47.5078 11.6572 47.5182 11.7083 47.5391 11.75C47.5599 11.7898 47.5921 11.8201 47.6357 11.8409C47.6792 11.8598 47.7351 11.8693 47.8033 11.8693C47.8506 11.8693 47.9055 11.8636 47.968 11.8523C48.0324 11.8409 48.0798 11.8314 48.1101 11.8239L48.3374 12.9261C48.2673 12.947 48.1669 12.9725 48.0362 13.0028C47.9074 13.0331 47.754 13.053 47.576 13.0625C47.2161 13.0814 46.9141 13.0445 46.6697 12.9517C46.4254 12.857 46.2417 12.7083 46.1186 12.5057C45.9955 12.303 45.9358 12.0492 45.9396 11.7443V7.59091ZM29.375 13.1818H31.3409L32.6932 16.4773H32.7614L34.1136 13.1818H36.0795V19H34.5341V15.6364H34.4886L33.1932 18.9545H32.2614L30.9659 15.6136H30.9205V19H29.375V13.1818ZM38.0668 19.0682C37.7884 19.0682 37.5421 19.0227 37.3281 18.9318C37.116 18.839 36.9493 18.6989 36.8281 18.5114C36.7069 18.3239 36.6463 18.0852 36.6463 17.7955C36.6463 17.5568 36.687 17.3532 36.7685 17.1847C36.8499 17.0142 36.9635 16.875 37.1094 16.767C37.2552 16.6591 37.4247 16.5767 37.6179 16.5199C37.813 16.4631 38.0232 16.4261 38.2486 16.4091C38.4929 16.3902 38.6889 16.3674 38.8366 16.3409C38.9863 16.3125 39.0942 16.2737 39.1605 16.2244C39.2268 16.1733 39.2599 16.1061 39.2599 16.0227V16.0114C39.2599 15.8977 39.2164 15.8106 39.1293 15.75C39.0421 15.6894 38.9304 15.6591 38.794 15.6591C38.6444 15.6591 38.5223 15.6922 38.4276 15.7585C38.3348 15.8229 38.2789 15.9223 38.2599 16.0568H36.8168C36.8357 15.7917 36.92 15.5473 37.0696 15.3239C37.2211 15.0985 37.4418 14.9186 37.7315 14.7841C38.0213 14.6477 38.383 14.5795 38.8168 14.5795C39.1293 14.5795 39.4096 14.6165 39.6577 14.6903C39.9058 14.7623 40.117 14.8636 40.2912 14.9943C40.4654 15.1231 40.598 15.2746 40.6889 15.4489C40.7817 15.6212 40.8281 15.8087 40.8281 16.0114V19H39.3622V18.3864H39.3281C39.241 18.5492 39.1349 18.6809 39.0099 18.7812C38.8868 18.8816 38.7457 18.9545 38.5866 19C38.4295 19.0455 38.2562 19.0682 38.0668 19.0682ZM38.5781 18.0795C38.6974 18.0795 38.8092 18.0549 38.9134 18.0057C39.0194 17.9564 39.1056 17.8854 39.1719 17.7926C39.2382 17.6998 39.2713 17.5871 39.2713 17.4545V17.0909C39.2296 17.108 39.1851 17.1241 39.1378 17.1392C39.0923 17.1544 39.0431 17.1686 38.9901 17.1818C38.9389 17.1951 38.884 17.2074 38.8253 17.2188C38.7685 17.2301 38.7088 17.2405 38.6463 17.25C38.5251 17.2689 38.4257 17.3002 38.348 17.3438C38.2723 17.3854 38.2154 17.4375 38.1776 17.5C38.1416 17.5606 38.1236 17.6288 38.1236 17.7045C38.1236 17.8258 38.1662 17.9186 38.2514 17.983C38.3366 18.0473 38.4455 18.0795 38.5781 18.0795ZM41.5774 19V14.6364H43.1001V15.4659H43.1456C43.2251 15.1591 43.3511 14.9347 43.5234 14.7926C43.6977 14.6506 43.9013 14.5795 44.1342 14.5795C44.2024 14.5795 44.2696 14.5852 44.3359 14.5966C44.4041 14.6061 44.4695 14.6203 44.532 14.6392V15.9773C44.4543 15.9508 44.3587 15.9309 44.245 15.9176C44.1314 15.9044 44.0339 15.8977 43.9524 15.8977C43.799 15.8977 43.6607 15.9328 43.5376 16.0028C43.4164 16.071 43.3208 16.1676 43.2507 16.2926C43.1806 16.4157 43.1456 16.5606 43.1456 16.7273V19H41.5774ZM46.4553 17.9659L46.4666 16.1023H46.6712L47.728 14.6364H49.4893L47.7166 16.9205H47.2734L46.4553 17.9659ZM45.0462 19V13.1818H46.6143V19H45.0462ZM47.7393 19L46.7393 17.2727L47.7621 16.1591L49.5348 19H47.7393ZM51.8089 19.0795C51.343 19.0795 50.9415 18.9905 50.6044 18.8125C50.2692 18.6326 50.0107 18.375 49.8288 18.0398C49.6489 17.7027 49.5589 17.2992 49.5589 16.8295C49.5589 16.3788 49.6499 15.9848 49.8317 15.6477C50.0135 15.3106 50.2701 15.0483 50.6016 14.8608C50.933 14.6733 51.3241 14.5795 51.7749 14.5795C52.1044 14.5795 52.4027 14.6307 52.6697 14.733C52.9368 14.8352 53.165 14.9839 53.3544 15.179C53.5438 15.3722 53.6896 15.607 53.7919 15.8835C53.8942 16.16 53.9453 16.4716 53.9453 16.8182V17.1818H50.0476V16.3182H52.5021C52.5002 16.1932 52.468 16.0833 52.4055 15.9886C52.3449 15.892 52.2625 15.8172 52.1584 15.7642C52.0561 15.7093 51.9396 15.6818 51.8089 15.6818C51.6821 15.6818 51.5656 15.7093 51.4595 15.7642C51.3535 15.8172 51.2682 15.8911 51.2038 15.9858C51.1413 16.0805 51.1082 16.1913 51.1044 16.3182V17.25C51.1044 17.3902 51.1338 17.5152 51.1925 17.625C51.2512 17.7348 51.3355 17.821 51.4453 17.8835C51.5552 17.946 51.6877 17.9773 51.843 17.9773C51.951 17.9773 52.0495 17.9621 52.1385 17.9318C52.2294 17.9015 52.3071 17.858 52.3714 17.8011C52.4358 17.7424 52.4832 17.6723 52.5135 17.5909H53.9453C53.8961 17.8939 53.7796 18.1572 53.5959 18.3807C53.4122 18.6023 53.1688 18.7746 52.8658 18.8977C52.5646 19.0189 52.2124 19.0795 51.8089 19.0795ZM57.1875 14.6364V15.7727H54.3125V14.6364H57.1875ZM54.8693 13.5909H56.4375V17.5966C56.4375 17.6572 56.4479 17.7083 56.4688 17.75C56.4896 17.7898 56.5218 17.8201 56.5653 17.8409C56.6089 17.8598 56.6648 17.8693 56.733 17.8693C56.7803 17.8693 56.8352 17.8636 56.8977 17.8523C56.9621 17.8409 57.0095 17.8314 57.0398 17.8239L57.267 18.9261C57.197 18.947 57.0966 18.9725 56.9659 19.0028C56.8371 19.0331 56.6837 19.053 56.5057 19.0625C56.1458 19.0814 55.8438 19.0445 55.5994 18.9517C55.3551 18.857 55.1714 18.7083 55.0483 18.5057C54.9252 18.303 54.8655 18.0492 54.8693 17.7443V13.5909Z" fill="black"/>
</svg>
