<svg width="393" height="852" viewBox="0 0 393 852" fill="none" xmlns="http://www.w3.org/2000/svg">
<g opacity="0.8">
<g clip-path="url(#clip0_649_28)">
<path opacity="0.4" d="M-636 109H1110" stroke="#9F9F9F" stroke-linecap="round"/>
<path opacity="0.4" d="M-636 163H1110" stroke="#9F9F9F" stroke-linecap="round"/>
<path opacity="0.4" d="M-636 217H1110" stroke="#9F9F9F" stroke-linecap="round"/>
<path opacity="0.4" d="M-636 271H1110" stroke="#9F9F9F" stroke-linecap="round"/>
<path opacity="0.4" d="M-636 325H1110" stroke="#9F9F9F" stroke-linecap="round"/>
<path opacity="0.4" d="M-636 379H1110" stroke="#9F9F9F" stroke-linecap="round"/>
<path opacity="0.4" d="M-636 433H1110" stroke="#9F9F9F" stroke-linecap="round"/>
<path opacity="0.4" d="M-636 487H1110" stroke="#9F9F9F" stroke-linecap="round"/>
<path opacity="0.4" d="M-636 541H1110" stroke="#9F9F9F" stroke-linecap="round"/>
<path opacity="0.4" d="M-636 595H1110" stroke="#9F9F9F" stroke-linecap="round"/>
<path opacity="0.4" d="M-636 649H1110" stroke="#9F9F9F" stroke-linecap="round"/>
<path opacity="0.4" d="M-636 703H1110" stroke="#9F9F9F" stroke-linecap="round"/>
<path opacity="0.4" d="M-636 757H1110" stroke="#9F9F9F" stroke-linecap="round"/>
<path opacity="0.4" d="M-636 811H1110" stroke="#9F9F9F" stroke-linecap="round"/>
</g>
<g clip-path="url(#clip1_649_28)">
<path opacity="0.4" d="M33.5 919L33.5 -827" stroke="#9F9F9F" stroke-linecap="round"/>
<path opacity="0.4" d="M87.5 919L87.5 -827" stroke="#9F9F9F" stroke-linecap="round"/>
<path opacity="0.4" d="M141.5 919L141.5 -827" stroke="#9F9F9F" stroke-linecap="round"/>
<path opacity="0.4" d="M195.5 919L195.5 -827" stroke="#9F9F9F" stroke-linecap="round"/>
<path opacity="0.4" d="M249.5 919L249.5 -827" stroke="#9F9F9F" stroke-linecap="round"/>
<path opacity="0.4" d="M303.5 919L303.5 -827" stroke="#9F9F9F" stroke-linecap="round"/>
<path opacity="0.4" d="M357.5 919L357.5 -827" stroke="#9F9F9F" stroke-linecap="round"/>
</g>
</g>
<g clip-path="url(#clip2_649_28)">
<path opacity="0.1" d="M2680 36H-2288V37H2680V36Z" fill="#9F9F9F"/>
<path opacity="0.1" d="M2680 42H-2288V43H2680V42Z" fill="#9F9F9F"/>
<path opacity="0.1" d="M2680 48H-2288V49H2680V48Z" fill="#9F9F9F"/>
<path opacity="0.1" d="M2680 54H-2288V55H2680V54Z" fill="#9F9F9F"/>
<path opacity="0.1" d="M2680 60H-2288V61H2680V60Z" fill="#9F9F9F"/>
<path opacity="0.1" d="M2680 66H-2288V67H2680V66Z" fill="#9F9F9F"/>
<path opacity="0.1" d="M2680 72H-2288V73H2680V72Z" fill="#9F9F9F"/>
<path opacity="0.1" d="M2680 78H-2288V79H2680V78Z" fill="#9F9F9F"/>
<path opacity="0.1" d="M2680 84H-2288V85H2680V84Z" fill="#9F9F9F"/>
<path opacity="0.1" d="M2680 90H-2288V91H2680V90Z" fill="#9F9F9F"/>
<path opacity="0.1" d="M2680 96H-2288V97H2680V96Z" fill="#9F9F9F"/>
<path opacity="0.1" d="M2680 102H-2288V103H2680V102Z" fill="#9F9F9F"/>
<path opacity="0.1" d="M2680 108H-2288V109H2680V108Z" fill="#9F9F9F"/>
<path opacity="0.1" d="M2680 114H-2288V115H2680V114Z" fill="#9F9F9F"/>
<path opacity="0.1" d="M2680 120H-2288V121H2680V120Z" fill="#9F9F9F"/>
<path opacity="0.1" d="M2680 126H-2288V127H2680V126Z" fill="#9F9F9F"/>
<path opacity="0.1" d="M2680 132H-2288V133H2680V132Z" fill="#9F9F9F"/>
<path opacity="0.1" d="M2680 138H-2288V139H2680V138Z" fill="#9F9F9F"/>
<path opacity="0.1" d="M2680 144H-2288V145H2680V144Z" fill="#9F9F9F"/>
<path opacity="0.1" d="M2680 150H-2288V151H2680V150Z" fill="#9F9F9F"/>
<path opacity="0.1" d="M2680 156H-2288V157H2680V156Z" fill="#9F9F9F"/>
<path opacity="0.1" d="M2680 162H-2288V163H2680V162Z" fill="#9F9F9F"/>
<path opacity="0.1" d="M2680 168H-2288V169H2680V168Z" fill="#9F9F9F"/>
<path opacity="0.1" d="M2680 174H-2288V175H2680V174Z" fill="#9F9F9F"/>
<path opacity="0.1" d="M2680 180H-2288V181H2680V180Z" fill="#9F9F9F"/>
<path opacity="0.1" d="M2680 186H-2288V187H2680V186Z" fill="#9F9F9F"/>
<path opacity="0.1" d="M2680 192H-2288V193H2680V192Z" fill="#9F9F9F"/>
<path opacity="0.1" d="M2680 198H-2288V199H2680V198Z" fill="#9F9F9F"/>
<path opacity="0.1" d="M2680 204H-2288V205H2680V204Z" fill="#9F9F9F"/>
<path opacity="0.1" d="M2680 210H-2288V211H2680V210Z" fill="#9F9F9F"/>
<path opacity="0.1" d="M2680 216H-2288V217H2680V216Z" fill="#9F9F9F"/>
<path opacity="0.1" d="M2680 222H-2288V223H2680V222Z" fill="#9F9F9F"/>
<path opacity="0.1" d="M2680 228H-2288V229H2680V228Z" fill="#9F9F9F"/>
<path opacity="0.1" d="M2680 234H-2288V235H2680V234Z" fill="#9F9F9F"/>
<path opacity="0.1" d="M2680 240H-2288V241H2680V240Z" fill="#9F9F9F"/>
<path opacity="0.1" d="M2680 246H-2288V247H2680V246Z" fill="#9F9F9F"/>
<path opacity="0.1" d="M2680 252H-2288V253H2680V252Z" fill="#9F9F9F"/>
<path opacity="0.1" d="M2680 258H-2288V259H2680V258Z" fill="#9F9F9F"/>
<path opacity="0.1" d="M2680 264H-2288V265H2680V264Z" fill="#9F9F9F"/>
<path opacity="0.1" d="M2680 270H-2288V271H2680V270Z" fill="#9F9F9F"/>
<path opacity="0.1" d="M2680 276H-2288V277H2680V276Z" fill="#9F9F9F"/>
<path opacity="0.1" d="M2680 282H-2288V283H2680V282Z" fill="#9F9F9F"/>
<path opacity="0.1" d="M2680 288H-2288V289H2680V288Z" fill="#9F9F9F"/>
<path opacity="0.1" d="M2680 294H-2288V295H2680V294Z" fill="#9F9F9F"/>
<path opacity="0.1" d="M2680 300H-2288V301H2680V300Z" fill="#9F9F9F"/>
<path opacity="0.1" d="M2680 306H-2288V307H2680V306Z" fill="#9F9F9F"/>
<path opacity="0.1" d="M2680 312H-2288V313H2680V312Z" fill="#9F9F9F"/>
<path opacity="0.1" d="M2680 318H-2288V319H2680V318Z" fill="#9F9F9F"/>
<path opacity="0.1" d="M2680 324H-2288V325H2680V324Z" fill="#9F9F9F"/>
<path opacity="0.1" d="M2680 330H-2288V331H2680V330Z" fill="#9F9F9F"/>
<path opacity="0.1" d="M2680 336H-2288V337H2680V336Z" fill="#9F9F9F"/>
<path opacity="0.1" d="M2680 342H-2288V343H2680V342Z" fill="#9F9F9F"/>
<path opacity="0.1" d="M2680 348H-2288V349H2680V348Z" fill="#9F9F9F"/>
<path opacity="0.1" d="M2680 354H-2288V355H2680V354Z" fill="#9F9F9F"/>
<path opacity="0.1" d="M2680 360H-2288V361H2680V360Z" fill="#9F9F9F"/>
<path opacity="0.1" d="M2680 366H-2288V367H2680V366Z" fill="#9F9F9F"/>
<path opacity="0.1" d="M2680 372H-2288V373H2680V372Z" fill="#9F9F9F"/>
<path opacity="0.1" d="M2680 378H-2288V379H2680V378Z" fill="#9F9F9F"/>
<path opacity="0.1" d="M2680 384H-2288V385H2680V384Z" fill="#9F9F9F"/>
<path opacity="0.1" d="M2680 390H-2288V391H2680V390Z" fill="#9F9F9F"/>
<path opacity="0.1" d="M2680 396H-2288V397H2680V396Z" fill="#9F9F9F"/>
<path opacity="0.1" d="M2680 402H-2288V403H2680V402Z" fill="#9F9F9F"/>
<path opacity="0.1" d="M2680 408H-2288V409H2680V408Z" fill="#9F9F9F"/>
<path opacity="0.1" d="M2680 414H-2288V415H2680V414Z" fill="#9F9F9F"/>
<path opacity="0.1" d="M2680 420H-2288V421H2680V420Z" fill="#9F9F9F"/>
<path opacity="0.1" d="M2680 426H-2288V427H2680V426Z" fill="#9F9F9F"/>
<path opacity="0.1" d="M2680 432H-2288V433H2680V432Z" fill="#9F9F9F"/>
<path opacity="0.1" d="M2680 438H-2288V439H2680V438Z" fill="#9F9F9F"/>
<path opacity="0.1" d="M2680 444H-2288V445H2680V444Z" fill="#9F9F9F"/>
<path opacity="0.1" d="M2680 450H-2288V451H2680V450Z" fill="#9F9F9F"/>
<path opacity="0.1" d="M2680 456H-2288V457H2680V456Z" fill="#9F9F9F"/>
<path opacity="0.1" d="M2680 462H-2288V463H2680V462Z" fill="#9F9F9F"/>
<path opacity="0.1" d="M2680 468H-2288V469H2680V468Z" fill="#9F9F9F"/>
<path opacity="0.1" d="M2680 474H-2288V475H2680V474Z" fill="#9F9F9F"/>
<path opacity="0.1" d="M2680 480H-2288V481H2680V480Z" fill="#9F9F9F"/>
<path opacity="0.1" d="M2680 486H-2288V487H2680V486Z" fill="#9F9F9F"/>
<path opacity="0.1" d="M2680 492H-2288V493H2680V492Z" fill="#9F9F9F"/>
<path opacity="0.1" d="M2680 498H-2288V499H2680V498Z" fill="#9F9F9F"/>
<path opacity="0.1" d="M2680 504H-2288V505H2680V504Z" fill="#9F9F9F"/>
<path opacity="0.1" d="M2680 510H-2288V511H2680V510Z" fill="#9F9F9F"/>
<path opacity="0.1" d="M2680 516H-2288V517H2680V516Z" fill="#9F9F9F"/>
<path opacity="0.1" d="M2680 522H-2288V523H2680V522Z" fill="#9F9F9F"/>
<path opacity="0.1" d="M2680 528H-2288V529H2680V528Z" fill="#9F9F9F"/>
<path opacity="0.1" d="M2680 534H-2288V535H2680V534Z" fill="#9F9F9F"/>
<path opacity="0.1" d="M2680 540H-2288V541H2680V540Z" fill="#9F9F9F"/>
<path opacity="0.1" d="M2680 546H-2288V547H2680V546Z" fill="#9F9F9F"/>
<path opacity="0.1" d="M2680 552H-2288V553H2680V552Z" fill="#9F9F9F"/>
<path opacity="0.1" d="M2680 558H-2288V559H2680V558Z" fill="#9F9F9F"/>
<path opacity="0.1" d="M2680 564H-2288V565H2680V564Z" fill="#9F9F9F"/>
<path opacity="0.1" d="M2680 570H-2288V571H2680V570Z" fill="#9F9F9F"/>
<path opacity="0.1" d="M2680 576H-2288V577H2680V576Z" fill="#9F9F9F"/>
<path opacity="0.1" d="M2680 582H-2288V583H2680V582Z" fill="#9F9F9F"/>
<path opacity="0.1" d="M2680 588H-2288V589H2680V588Z" fill="#9F9F9F"/>
<path opacity="0.1" d="M2680 594H-2288V595H2680V594Z" fill="#9F9F9F"/>
<path opacity="0.1" d="M2680 600H-2288V601H2680V600Z" fill="#9F9F9F"/>
<path opacity="0.1" d="M2680 606H-2288V607H2680V606Z" fill="#9F9F9F"/>
<path opacity="0.1" d="M2680 612H-2288V613H2680V612Z" fill="#9F9F9F"/>
<path opacity="0.1" d="M2680 618H-2288V619H2680V618Z" fill="#9F9F9F"/>
<path opacity="0.1" d="M2680 624H-2288V625H2680V624Z" fill="#9F9F9F"/>
<path opacity="0.1" d="M2680 630H-2288V631H2680V630Z" fill="#9F9F9F"/>
<path opacity="0.1" d="M2680 636H-2288V637H2680V636Z" fill="#9F9F9F"/>
<path opacity="0.1" d="M2680 642H-2288V643H2680V642Z" fill="#9F9F9F"/>
<path opacity="0.1" d="M2680 648H-2288V649H2680V648Z" fill="#9F9F9F"/>
<path opacity="0.1" d="M2680 654H-2288V655H2680V654Z" fill="#9F9F9F"/>
<path opacity="0.1" d="M2680 660H-2288V661H2680V660Z" fill="#9F9F9F"/>
<path opacity="0.1" d="M2680 666H-2288V667H2680V666Z" fill="#9F9F9F"/>
<path opacity="0.1" d="M2680 672H-2288V673H2680V672Z" fill="#9F9F9F"/>
<path opacity="0.1" d="M2680 678H-2288V679H2680V678Z" fill="#9F9F9F"/>
<path opacity="0.1" d="M2680 684H-2288V685H2680V684Z" fill="#9F9F9F"/>
<path opacity="0.1" d="M2680 690H-2288V691H2680V690Z" fill="#9F9F9F"/>
<path opacity="0.1" d="M2680 696H-2288V697H2680V696Z" fill="#9F9F9F"/>
<path opacity="0.1" d="M2680 702H-2288V703H2680V702Z" fill="#9F9F9F"/>
<path opacity="0.1" d="M2680 708H-2288V709H2680V708Z" fill="#9F9F9F"/>
<path opacity="0.1" d="M2680 714H-2288V715H2680V714Z" fill="#9F9F9F"/>
<path opacity="0.1" d="M2680 720H-2288V721H2680V720Z" fill="#9F9F9F"/>
<path opacity="0.1" d="M2680 726H-2288V727H2680V726Z" fill="#9F9F9F"/>
<path opacity="0.1" d="M2680 732H-2288V733H2680V732Z" fill="#9F9F9F"/>
<path opacity="0.1" d="M2680 738H-2288V739H2680V738Z" fill="#9F9F9F"/>
<path opacity="0.1" d="M2680 744H-2288V745H2680V744Z" fill="#9F9F9F"/>
<path opacity="0.1" d="M2680 750H-2288V751H2680V750Z" fill="#9F9F9F"/>
<path opacity="0.1" d="M2680 756H-2288V757H2680V756Z" fill="#9F9F9F"/>
<path opacity="0.1" d="M2680 762H-2288V763H2680V762Z" fill="#9F9F9F"/>
<path opacity="0.1" d="M2680 768H-2288V769H2680V768Z" fill="#9F9F9F"/>
<path opacity="0.1" d="M2680 774H-2288V775H2680V774Z" fill="#9F9F9F"/>
<path opacity="0.1" d="M2680 780H-2288V781H2680V780Z" fill="#9F9F9F"/>
<path opacity="0.1" d="M2680 786H-2288V787H2680V786Z" fill="#9F9F9F"/>
<path opacity="0.1" d="M2680 792H-2288V793H2680V792Z" fill="#9F9F9F"/>
<path opacity="0.1" d="M2680 798H-2288V799H2680V798Z" fill="#9F9F9F"/>
<path opacity="0.1" d="M2680 804H-2288V805H2680V804Z" fill="#9F9F9F"/>
<path opacity="0.1" d="M2680 810H-2288V811H2680V810Z" fill="#9F9F9F"/>
<path opacity="0.1" d="M2680 816H-2288V817H2680V816Z" fill="#9F9F9F"/>
<path opacity="0.1" d="M2680 822H-2288V823H2680V822Z" fill="#9F9F9F"/>
<path opacity="0.1" d="M2680 828H-2288V829H2680V828Z" fill="#9F9F9F"/>
<path opacity="0.1" d="M2680 834H-2288V835H2680V834Z" fill="#9F9F9F"/>
<path opacity="0.1" d="M2680 840H-2288V841H2680V840Z" fill="#9F9F9F"/>
<path opacity="0.1" d="M2680 846H-2288V847H2680V846Z" fill="#9F9F9F"/>
<path opacity="0.1" d="M4 -846H3V1096H4V-846Z" fill="#9F9F9F"/>
<path opacity="0.1" d="M10 -846H9V1096H10V-846Z" fill="#9F9F9F"/>
<path opacity="0.1" d="M16 -846H15V1096H16V-846Z" fill="#9F9F9F"/>
<path opacity="0.1" d="M22 -846H21V1096H22V-846Z" fill="#9F9F9F"/>
<path opacity="0.1" d="M28 -846H27V1096H28V-846Z" fill="#9F9F9F"/>
<path opacity="0.1" d="M34 -846H33V1096H34V-846Z" fill="#9F9F9F"/>
<path opacity="0.1" d="M40 -846H39V1096H40V-846Z" fill="#9F9F9F"/>
<path opacity="0.1" d="M46 -846H45V1096H46V-846Z" fill="#9F9F9F"/>
<path opacity="0.1" d="M52 -846H51V1096H52V-846Z" fill="#9F9F9F"/>
<path opacity="0.1" d="M58 -846H57V1096H58V-846Z" fill="#9F9F9F"/>
<path opacity="0.1" d="M64 -846H63V1096H64V-846Z" fill="#9F9F9F"/>
<path opacity="0.1" d="M70 -846H69V1096H70V-846Z" fill="#9F9F9F"/>
<path opacity="0.1" d="M76 -846H75V1096H76V-846Z" fill="#9F9F9F"/>
<path opacity="0.1" d="M82 -846H81V1096H82V-846Z" fill="#9F9F9F"/>
<path opacity="0.1" d="M88 -846H87V1096H88V-846Z" fill="#9F9F9F"/>
<path opacity="0.1" d="M94 -846H93V1096H94V-846Z" fill="#9F9F9F"/>
<path opacity="0.1" d="M100 -846H99V1096H100V-846Z" fill="#9F9F9F"/>
<path opacity="0.1" d="M106 -846H105V1096H106V-846Z" fill="#9F9F9F"/>
<path opacity="0.1" d="M112 -846H111V1096H112V-846Z" fill="#9F9F9F"/>
<path opacity="0.1" d="M118 -846H117V1096H118V-846Z" fill="#9F9F9F"/>
<path opacity="0.1" d="M124 -846H123V1096H124V-846Z" fill="#9F9F9F"/>
<path opacity="0.1" d="M130 -846H129V1096H130V-846Z" fill="#9F9F9F"/>
<path opacity="0.1" d="M136 -846H135V1096H136V-846Z" fill="#9F9F9F"/>
<path opacity="0.1" d="M142 -846H141V1096H142V-846Z" fill="#9F9F9F"/>
<path opacity="0.1" d="M148 -846H147V1096H148V-846Z" fill="#9F9F9F"/>
<path opacity="0.1" d="M154 -846H153V1096H154V-846Z" fill="#9F9F9F"/>
<path opacity="0.1" d="M160 -846H159V1096H160V-846Z" fill="#9F9F9F"/>
<path opacity="0.1" d="M166 -846H165V1096H166V-846Z" fill="#9F9F9F"/>
<path opacity="0.1" d="M172 -846H171V1096H172V-846Z" fill="#9F9F9F"/>
<path opacity="0.1" d="M178 -846H177V1096H178V-846Z" fill="#9F9F9F"/>
<path opacity="0.1" d="M184 -846H183V1096H184V-846Z" fill="#9F9F9F"/>
<path opacity="0.1" d="M190 -846H189V1096H190V-846Z" fill="#9F9F9F"/>
<path opacity="0.1" d="M196 -846H195V1096H196V-846Z" fill="#9F9F9F"/>
<path opacity="0.1" d="M202 -846H201V1096H202V-846Z" fill="#9F9F9F"/>
<path opacity="0.1" d="M208 -846H207V1096H208V-846Z" fill="#9F9F9F"/>
<path opacity="0.1" d="M214 -846H213V1096H214V-846Z" fill="#9F9F9F"/>
<path opacity="0.1" d="M220 -846H219V1096H220V-846Z" fill="#9F9F9F"/>
<path opacity="0.1" d="M226 -846H225V1096H226V-846Z" fill="#9F9F9F"/>
<path opacity="0.1" d="M232 -846H231V1096H232V-846Z" fill="#9F9F9F"/>
<path opacity="0.1" d="M238 -846H237V1096H238V-846Z" fill="#9F9F9F"/>
<path opacity="0.1" d="M244 -846H243V1096H244V-846Z" fill="#9F9F9F"/>
<path opacity="0.1" d="M250 -846H249V1096H250V-846Z" fill="#9F9F9F"/>
<path opacity="0.1" d="M256 -846H255V1096H256V-846Z" fill="#9F9F9F"/>
<path opacity="0.1" d="M262 -846H261V1096H262V-846Z" fill="#9F9F9F"/>
<path opacity="0.1" d="M268 -846H267V1096H268V-846Z" fill="#9F9F9F"/>
<path opacity="0.1" d="M274 -846H273V1096H274V-846Z" fill="#9F9F9F"/>
<path opacity="0.1" d="M280 -846H279V1096H280V-846Z" fill="#9F9F9F"/>
<path opacity="0.1" d="M286 -846H285V1096H286V-846Z" fill="#9F9F9F"/>
<path opacity="0.1" d="M292 -846H291V1096H292V-846Z" fill="#9F9F9F"/>
<path opacity="0.1" d="M298 -846H297V1096H298V-846Z" fill="#9F9F9F"/>
<path opacity="0.1" d="M304 -846H303V1096H304V-846Z" fill="#9F9F9F"/>
<path opacity="0.1" d="M310 -846H309V1096H310V-846Z" fill="#9F9F9F"/>
<path opacity="0.1" d="M316 -846H315V1096H316V-846Z" fill="#9F9F9F"/>
<path opacity="0.1" d="M322 -846H321V1096H322V-846Z" fill="#9F9F9F"/>
<path opacity="0.1" d="M328 -846H327V1096H328V-846Z" fill="#9F9F9F"/>
<path opacity="0.1" d="M334 -846H333V1096H334V-846Z" fill="#9F9F9F"/>
<path opacity="0.1" d="M340 -846H339V1096H340V-846Z" fill="#9F9F9F"/>
<path opacity="0.1" d="M346 -846H345V1096H346V-846Z" fill="#9F9F9F"/>
<path opacity="0.1" d="M352 -846H351V1096H352V-846Z" fill="#9F9F9F"/>
<path opacity="0.1" d="M358 -846H357V1096H358V-846Z" fill="#9F9F9F"/>
<path opacity="0.1" d="M364 -846H363V1096H364V-846Z" fill="#9F9F9F"/>
<path opacity="0.1" d="M370 -846H369V1096H370V-846Z" fill="#9F9F9F"/>
<path opacity="0.1" d="M376 -846H375V1096H376V-846Z" fill="#9F9F9F"/>
<path opacity="0.1" d="M382 -846H381V1096H382V-846Z" fill="#9F9F9F"/>
<path opacity="0.1" d="M388 -846H387V1096H388V-846Z" fill="#9F9F9F"/>
</g>
<defs>
<clipPath id="clip0_649_28">
<rect width="1660" height="702" fill="white" transform="translate(-636 109)"/>
</clipPath>
<clipPath id="clip1_649_28">
<rect width="921" height="702" fill="white" transform="matrix(0 -1 1 0 -182.5 919)"/>
</clipPath>
<clipPath id="clip2_649_28">
<rect width="4320" height="3132" fill="white" transform="translate(-1964 -1080)"/>
</clipPath>
</defs>
</svg>
