<svg width="363" height="44" viewBox="0 0 363 44" fill="none" xmlns="http://www.w3.org/2000/svg">
<rect width="363" height="44" fill="#17B67E"/>
<path d="M130.013 29.1989C128.99 29.1989 128.081 29.0237 127.286 28.6733C126.495 28.3229 125.87 27.8352 125.411 27.2102C124.951 26.5852 124.707 25.8632 124.679 25.044H127.349C127.373 25.437 127.503 25.7803 127.74 26.0739C127.977 26.3627 128.292 26.5876 128.685 26.7486C129.078 26.9096 129.518 26.9901 130.006 26.9901C130.527 26.9901 130.988 26.9001 131.391 26.7202C131.793 26.5355 132.108 26.2798 132.335 25.9531C132.563 25.6264 132.674 25.25 132.669 24.8239C132.674 24.3835 132.56 23.9953 132.328 23.6591C132.096 23.3229 131.76 23.0601 131.32 22.8707C130.884 22.6813 130.358 22.5866 129.743 22.5866H128.457V20.5554H129.743C130.25 20.5554 130.692 20.4678 131.071 20.2926C131.455 20.1174 131.755 19.8712 131.973 19.554C132.191 19.232 132.297 18.8603 132.293 18.4389C132.297 18.027 132.205 17.6695 132.016 17.3665C131.831 17.0587 131.568 16.8196 131.227 16.6491C130.891 16.4787 130.496 16.3935 130.041 16.3935C129.596 16.3935 129.184 16.474 128.805 16.6349C128.427 16.7959 128.121 17.0256 127.889 17.3239C127.657 17.6174 127.534 17.9678 127.52 18.375H124.984C125.003 17.5606 125.238 16.8456 125.688 16.2301C126.142 15.6098 126.748 15.1269 127.506 14.7812C128.263 14.4309 129.113 14.2557 130.055 14.2557C131.026 14.2557 131.869 14.438 132.584 14.8026C133.304 15.1624 133.86 15.6477 134.253 16.2585C134.646 16.8693 134.842 17.544 134.842 18.2827C134.847 19.1018 134.606 19.7884 134.118 20.3423C133.635 20.8963 133 21.2585 132.214 21.429V21.5426C133.237 21.6847 134.021 22.0634 134.565 22.679C135.115 23.2898 135.387 24.0497 135.382 24.9588C135.382 25.7732 135.15 26.5024 134.686 27.1463C134.227 27.7855 133.592 28.2874 132.783 28.652C131.978 29.0166 131.054 29.1989 130.013 29.1989ZM140.588 29.2202C139.896 29.2202 139.274 29.0971 138.72 28.8509C138.17 28.5999 137.735 28.2306 137.413 27.7429C137.096 27.2552 136.937 26.6539 136.937 25.9389C136.937 25.3234 137.051 24.8144 137.278 24.4119C137.505 24.0095 137.815 23.6875 138.208 23.446C138.601 23.2045 139.044 23.0223 139.536 22.8991C140.034 22.7713 140.547 22.679 141.078 22.6222C141.717 22.5559 142.235 22.4967 142.633 22.4446C143.031 22.3878 143.32 22.3026 143.5 22.1889C143.684 22.0705 143.776 21.8883 143.776 21.642V21.5994C143.776 21.0644 143.618 20.6501 143.301 20.3565C142.983 20.063 142.526 19.9162 141.93 19.9162C141.3 19.9162 140.801 20.0535 140.431 20.3281C140.067 20.6027 139.821 20.9271 139.693 21.3011L137.292 20.9602C137.482 20.2973 137.794 19.7434 138.23 19.2983C138.665 18.8485 139.198 18.5123 139.828 18.2898C140.457 18.0625 141.153 17.9489 141.916 17.9489C142.441 17.9489 142.964 18.0104 143.485 18.1335C144.006 18.2566 144.482 18.4602 144.913 18.7443C145.344 19.0237 145.689 19.4048 145.95 19.8878C146.215 20.3707 146.348 20.9744 146.348 21.6989V29H143.876V27.5014H143.791C143.634 27.8045 143.414 28.0885 143.13 28.3537C142.851 28.6141 142.498 28.8248 142.072 28.9858C141.651 29.142 141.156 29.2202 140.588 29.2202ZM141.255 27.331C141.771 27.331 142.219 27.2292 142.598 27.0256C142.976 26.8172 143.267 26.5426 143.471 26.2017C143.679 25.8608 143.784 25.4891 143.784 25.0866V23.8011C143.703 23.8674 143.566 23.929 143.372 23.9858C143.182 24.0426 142.969 24.0923 142.732 24.1349C142.496 24.1776 142.261 24.2154 142.029 24.2486C141.797 24.2817 141.596 24.3101 141.426 24.3338C141.042 24.3859 140.699 24.4711 140.396 24.5895C140.093 24.7079 139.854 24.8736 139.678 25.0866C139.503 25.295 139.416 25.5649 139.416 25.8963C139.416 26.3698 139.589 26.7273 139.934 26.9688C140.28 27.2102 140.72 27.331 141.255 27.331ZM154.811 26.0099L158.05 18.0909H160.124L155.713 29H153.916L149.605 18.0909H151.658L154.811 26.0099ZM151.011 18.0909V29H148.533V18.0909H151.011ZM158.717 29V18.0909H161.175V29H158.717ZM168.126 29.2131C167.06 29.2131 166.137 28.9787 165.356 28.5099C164.575 28.0412 163.968 27.3854 163.538 26.5426C163.111 25.6998 162.898 24.715 162.898 23.5881C162.898 22.4612 163.111 21.474 163.538 20.6264C163.968 19.7789 164.575 19.1207 165.356 18.652C166.137 18.1832 167.06 17.9489 168.126 17.9489C169.191 17.9489 170.114 18.1832 170.896 18.652C171.677 19.1207 172.28 19.7789 172.707 20.6264C173.137 21.474 173.353 22.4612 173.353 23.5881C173.353 24.715 173.137 25.6998 172.707 26.5426C172.28 27.3854 171.677 28.0412 170.896 28.5099C170.114 28.9787 169.191 29.2131 168.126 29.2131ZM168.14 27.1534C168.717 27.1534 169.2 26.9948 169.589 26.6776C169.977 26.3556 170.266 25.9247 170.455 25.3849C170.649 24.8452 170.746 24.2438 170.746 23.581C170.746 22.9134 170.649 22.3097 170.455 21.7699C170.266 21.2254 169.977 20.7921 169.589 20.4702C169.2 20.1482 168.717 19.9872 168.14 19.9872C167.548 19.9872 167.056 20.1482 166.663 20.4702C166.274 20.7921 165.983 21.2254 165.789 21.7699C165.6 22.3097 165.505 22.9134 165.505 23.581C165.505 24.2438 165.6 24.8452 165.789 25.3849C165.983 25.9247 166.274 26.3556 166.663 26.6776C167.056 26.9948 167.548 27.1534 168.14 27.1534ZM175.135 29V18.0909H179.716C181.009 18.0909 182.029 18.349 182.777 18.8651C183.53 19.3812 183.906 20.1009 183.906 21.0241C183.906 21.6349 183.693 22.1345 183.267 22.5227C182.846 22.9062 182.271 23.1643 181.541 23.2969C182.114 23.3442 182.616 23.4886 183.047 23.7301C183.483 23.9716 183.824 24.2888 184.07 24.6818C184.316 25.0748 184.439 25.527 184.439 26.0384C184.439 26.6397 184.28 27.1629 183.963 27.608C183.651 28.0483 183.194 28.3916 182.592 28.6378C181.996 28.8793 181.271 29 180.419 29H175.135ZM177.543 26.9759H180.419C180.893 26.9759 181.264 26.8646 181.534 26.642C181.804 26.4148 181.939 26.107 181.939 25.7188C181.939 25.2689 181.804 24.9162 181.534 24.6605C181.264 24.4001 180.893 24.2699 180.419 24.2699H177.543V26.9759ZM177.543 22.608H179.766C180.116 22.608 180.417 22.5582 180.668 22.4588C180.919 22.3546 181.11 22.2102 181.243 22.0256C181.376 21.8362 181.442 21.6113 181.442 21.3509C181.442 20.9768 181.288 20.6832 180.98 20.4702C180.677 20.2571 180.256 20.1506 179.716 20.1506H177.543V22.608ZM188.64 25.5199L193.007 18.0909H195.65V29H193.164V21.5639L188.81 29H186.161V18.0909H188.64V25.5199ZM196.668 20.2003V18.0909H206.214V20.2003H202.684V29H200.198V20.2003H196.668ZM210.34 25.5199L214.707 18.0909H217.35V29H214.864V21.5639L210.51 29H207.861V18.0909H210.34V25.5199Z" fill="white"/>
<path d="M332 13L353 34M353 34H332M353 34V13" stroke="white" stroke-width="2"/>
</svg>
