<svg width="1067" height="834" viewBox="0 0 1067 834" fill="none" xmlns="http://www.w3.org/2000/svg">
<g clip-path="url(#clip0_646_1635)">
<g opacity="0.8">
<g clip-path="url(#clip1_646_1635)">
<path opacity="0.4" d="M-268 61H1478" stroke="#9F9F9F" stroke-linecap="round"/>
<path opacity="0.4" d="M-268 115H1478" stroke="#9F9F9F" stroke-linecap="round"/>
<path opacity="0.4" d="M-268 169H1478" stroke="#9F9F9F" stroke-linecap="round"/>
<path opacity="0.4" d="M-268 223H1478" stroke="#9F9F9F" stroke-linecap="round"/>
<path opacity="0.4" d="M-268 277H1478" stroke="#9F9F9F" stroke-linecap="round"/>
<path opacity="0.4" d="M-268 331H1478" stroke="#9F9F9F" stroke-linecap="round"/>
<path opacity="0.4" d="M-268 385H1478" stroke="#9F9F9F" stroke-linecap="round"/>
<path opacity="0.4" d="M-268 439H1478" stroke="#9F9F9F" stroke-linecap="round"/>
<path opacity="0.4" d="M-268 493H1478" stroke="#9F9F9F" stroke-linecap="round"/>
<path opacity="0.4" d="M-268 547H1478" stroke="#9F9F9F" stroke-linecap="round"/>
<path opacity="0.4" d="M-268 601H1478" stroke="#9F9F9F" stroke-linecap="round"/>
<path opacity="0.4" d="M-268 655H1478" stroke="#9F9F9F" stroke-linecap="round"/>
<path opacity="0.4" d="M-268 709H1478" stroke="#9F9F9F" stroke-linecap="round"/>
<path opacity="0.4" d="M-268 763H1478" stroke="#9F9F9F" stroke-linecap="round"/>
</g>
<g clip-path="url(#clip2_646_1635)">
<path opacity="0.4" d="M185.5 871L185.5 -875" stroke="#9F9F9F" stroke-linecap="round"/>
<path opacity="0.4" d="M239.5 871L239.5 -875" stroke="#9F9F9F" stroke-linecap="round"/>
<path opacity="0.4" d="M293.5 871L293.5 -875" stroke="#9F9F9F" stroke-linecap="round"/>
<path opacity="0.4" d="M347.5 871L347.5 -875" stroke="#9F9F9F" stroke-linecap="round"/>
<path opacity="0.4" d="M401.5 871L401.5 -875" stroke="#9F9F9F" stroke-linecap="round"/>
<path opacity="0.4" d="M455.5 871L455.5 -875" stroke="#9F9F9F" stroke-linecap="round"/>
<path opacity="0.4" d="M509.5 871L509.5 -875" stroke="#9F9F9F" stroke-linecap="round"/>
<path opacity="0.4" d="M563.5 871L563.5 -875" stroke="#9F9F9F" stroke-linecap="round"/>
<path opacity="0.4" d="M617.5 871L617.5 -875" stroke="#9F9F9F" stroke-linecap="round"/>
<path opacity="0.4" d="M671.5 871L671.5 -875" stroke="#9F9F9F" stroke-linecap="round"/>
<path opacity="0.4" d="M725.5 871L725.5 -875" stroke="#9F9F9F" stroke-linecap="round"/>
<path opacity="0.4" d="M779.5 871L779.5 -875" stroke="#9F9F9F" stroke-linecap="round"/>
<path opacity="0.4" d="M833.5 871L833.5 -875" stroke="#9F9F9F" stroke-linecap="round"/>
<path opacity="0.4" d="M887.5 871L887.5 -875" stroke="#9F9F9F" stroke-linecap="round"/>
</g>
</g>
<g clip-path="url(#clip3_646_1635)">
<path opacity="0.1" d="M3048 0H-1920V1H3048V0Z" fill="#9F9F9F"/>
<path opacity="0.1" d="M3048 6H-1920V7H3048V6Z" fill="#9F9F9F"/>
<path opacity="0.1" d="M3048 12H-1920V13H3048V12Z" fill="#9F9F9F"/>
<path opacity="0.1" d="M3048 18H-1920V19H3048V18Z" fill="#9F9F9F"/>
<path opacity="0.1" d="M3048 24H-1920V25H3048V24Z" fill="#9F9F9F"/>
<path opacity="0.1" d="M3048 30H-1920V31H3048V30Z" fill="#9F9F9F"/>
<path opacity="0.1" d="M3048 36H-1920V37H3048V36Z" fill="#9F9F9F"/>
<path opacity="0.1" d="M3048 42H-1920V43H3048V42Z" fill="#9F9F9F"/>
<path opacity="0.1" d="M3048 48H-1920V49H3048V48Z" fill="#9F9F9F"/>
<path opacity="0.1" d="M3048 54H-1920V55H3048V54Z" fill="#9F9F9F"/>
<path opacity="0.1" d="M3048 60H-1920V61H3048V60Z" fill="#9F9F9F"/>
<path opacity="0.1" d="M3048 66H-1920V67H3048V66Z" fill="#9F9F9F"/>
<path opacity="0.1" d="M3048 72H-1920V73H3048V72Z" fill="#9F9F9F"/>
<path opacity="0.1" d="M3048 78H-1920V79H3048V78Z" fill="#9F9F9F"/>
<path opacity="0.1" d="M3048 84H-1920V85H3048V84Z" fill="#9F9F9F"/>
<path opacity="0.1" d="M3048 90H-1920V91H3048V90Z" fill="#9F9F9F"/>
<path opacity="0.1" d="M3048 96H-1920V97H3048V96Z" fill="#9F9F9F"/>
<path opacity="0.1" d="M3048 102H-1920V103H3048V102Z" fill="#9F9F9F"/>
<path opacity="0.1" d="M3048 108H-1920V109H3048V108Z" fill="#9F9F9F"/>
<path opacity="0.1" d="M3048 114H-1920V115H3048V114Z" fill="#9F9F9F"/>
<path opacity="0.1" d="M3048 120H-1920V121H3048V120Z" fill="#9F9F9F"/>
<path opacity="0.1" d="M3048 126H-1920V127H3048V126Z" fill="#9F9F9F"/>
<path opacity="0.1" d="M3048 132H-1920V133H3048V132Z" fill="#9F9F9F"/>
<path opacity="0.1" d="M3048 138H-1920V139H3048V138Z" fill="#9F9F9F"/>
<path opacity="0.1" d="M3048 144H-1920V145H3048V144Z" fill="#9F9F9F"/>
<path opacity="0.1" d="M3048 150H-1920V151H3048V150Z" fill="#9F9F9F"/>
<path opacity="0.1" d="M3048 156H-1920V157H3048V156Z" fill="#9F9F9F"/>
<path opacity="0.1" d="M3048 162H-1920V163H3048V162Z" fill="#9F9F9F"/>
<path opacity="0.1" d="M3048 168H-1920V169H3048V168Z" fill="#9F9F9F"/>
<path opacity="0.1" d="M3048 174H-1920V175H3048V174Z" fill="#9F9F9F"/>
<path opacity="0.1" d="M3048 180H-1920V181H3048V180Z" fill="#9F9F9F"/>
<path opacity="0.1" d="M3048 186H-1920V187H3048V186Z" fill="#9F9F9F"/>
<path opacity="0.1" d="M3048 192H-1920V193H3048V192Z" fill="#9F9F9F"/>
<path opacity="0.1" d="M3048 198H-1920V199H3048V198Z" fill="#9F9F9F"/>
<path opacity="0.1" d="M3048 204H-1920V205H3048V204Z" fill="#9F9F9F"/>
<path opacity="0.1" d="M3048 210H-1920V211H3048V210Z" fill="#9F9F9F"/>
<path opacity="0.1" d="M3048 216H-1920V217H3048V216Z" fill="#9F9F9F"/>
<path opacity="0.1" d="M3048 222H-1920V223H3048V222Z" fill="#9F9F9F"/>
<path opacity="0.1" d="M3048 228H-1920V229H3048V228Z" fill="#9F9F9F"/>
<path opacity="0.1" d="M3048 234H-1920V235H3048V234Z" fill="#9F9F9F"/>
<path opacity="0.1" d="M3048 240H-1920V241H3048V240Z" fill="#9F9F9F"/>
<path opacity="0.1" d="M3048 246H-1920V247H3048V246Z" fill="#9F9F9F"/>
<path opacity="0.1" d="M3048 252H-1920V253H3048V252Z" fill="#9F9F9F"/>
<path opacity="0.1" d="M3048 258H-1920V259H3048V258Z" fill="#9F9F9F"/>
<path opacity="0.1" d="M3048 264H-1920V265H3048V264Z" fill="#9F9F9F"/>
<path opacity="0.1" d="M3048 270H-1920V271H3048V270Z" fill="#9F9F9F"/>
<path opacity="0.1" d="M3048 276H-1920V277H3048V276Z" fill="#9F9F9F"/>
<path opacity="0.1" d="M3048 282H-1920V283H3048V282Z" fill="#9F9F9F"/>
<path opacity="0.1" d="M3048 288H-1920V289H3048V288Z" fill="#9F9F9F"/>
<path opacity="0.1" d="M3048 294H-1920V295H3048V294Z" fill="#9F9F9F"/>
<path opacity="0.1" d="M3048 300H-1920V301H3048V300Z" fill="#9F9F9F"/>
<path opacity="0.1" d="M3048 306H-1920V307H3048V306Z" fill="#9F9F9F"/>
<path opacity="0.1" d="M3048 312H-1920V313H3048V312Z" fill="#9F9F9F"/>
<path opacity="0.1" d="M3048 318H-1920V319H3048V318Z" fill="#9F9F9F"/>
<path opacity="0.1" d="M3048 324H-1920V325H3048V324Z" fill="#9F9F9F"/>
<path opacity="0.1" d="M3048 330H-1920V331H3048V330Z" fill="#9F9F9F"/>
<path opacity="0.1" d="M3048 336H-1920V337H3048V336Z" fill="#9F9F9F"/>
<path opacity="0.1" d="M3048 342H-1920V343H3048V342Z" fill="#9F9F9F"/>
<path opacity="0.1" d="M3048 348H-1920V349H3048V348Z" fill="#9F9F9F"/>
<path opacity="0.1" d="M3048 354H-1920V355H3048V354Z" fill="#9F9F9F"/>
<path opacity="0.1" d="M3048 360H-1920V361H3048V360Z" fill="#9F9F9F"/>
<path opacity="0.1" d="M3048 366H-1920V367H3048V366Z" fill="#9F9F9F"/>
<path opacity="0.1" d="M3048 372H-1920V373H3048V372Z" fill="#9F9F9F"/>
<path opacity="0.1" d="M3048 378H-1920V379H3048V378Z" fill="#9F9F9F"/>
<path opacity="0.1" d="M3048 384H-1920V385H3048V384Z" fill="#9F9F9F"/>
<path opacity="0.1" d="M3048 390H-1920V391H3048V390Z" fill="#9F9F9F"/>
<path opacity="0.1" d="M3048 396H-1920V397H3048V396Z" fill="#9F9F9F"/>
<path opacity="0.1" d="M3048 402H-1920V403H3048V402Z" fill="#9F9F9F"/>
<path opacity="0.1" d="M3048 408H-1920V409H3048V408Z" fill="#9F9F9F"/>
<path opacity="0.1" d="M3048 414H-1920V415H3048V414Z" fill="#9F9F9F"/>
<path opacity="0.1" d="M3048 420H-1920V421H3048V420Z" fill="#9F9F9F"/>
<path opacity="0.1" d="M3048 426H-1920V427H3048V426Z" fill="#9F9F9F"/>
<path opacity="0.1" d="M3048 432H-1920V433H3048V432Z" fill="#9F9F9F"/>
<path opacity="0.1" d="M3048 438H-1920V439H3048V438Z" fill="#9F9F9F"/>
<path opacity="0.1" d="M3048 444H-1920V445H3048V444Z" fill="#9F9F9F"/>
<path opacity="0.1" d="M3048 450H-1920V451H3048V450Z" fill="#9F9F9F"/>
<path opacity="0.1" d="M3048 456H-1920V457H3048V456Z" fill="#9F9F9F"/>
<path opacity="0.1" d="M3048 462H-1920V463H3048V462Z" fill="#9F9F9F"/>
<path opacity="0.1" d="M3048 468H-1920V469H3048V468Z" fill="#9F9F9F"/>
<path opacity="0.1" d="M3048 474H-1920V475H3048V474Z" fill="#9F9F9F"/>
<path opacity="0.1" d="M3048 480H-1920V481H3048V480Z" fill="#9F9F9F"/>
<path opacity="0.1" d="M3048 486H-1920V487H3048V486Z" fill="#9F9F9F"/>
<path opacity="0.1" d="M3048 492H-1920V493H3048V492Z" fill="#9F9F9F"/>
<path opacity="0.1" d="M3048 498H-1920V499H3048V498Z" fill="#9F9F9F"/>
<path opacity="0.1" d="M3048 504H-1920V505H3048V504Z" fill="#9F9F9F"/>
<path opacity="0.1" d="M3048 510H-1920V511H3048V510Z" fill="#9F9F9F"/>
<path opacity="0.1" d="M3048 516H-1920V517H3048V516Z" fill="#9F9F9F"/>
<path opacity="0.1" d="M3048 522H-1920V523H3048V522Z" fill="#9F9F9F"/>
<path opacity="0.1" d="M3048 528H-1920V529H3048V528Z" fill="#9F9F9F"/>
<path opacity="0.1" d="M3048 534H-1920V535H3048V534Z" fill="#9F9F9F"/>
<path opacity="0.1" d="M3048 540H-1920V541H3048V540Z" fill="#9F9F9F"/>
<path opacity="0.1" d="M3048 546H-1920V547H3048V546Z" fill="#9F9F9F"/>
<path opacity="0.1" d="M3048 552H-1920V553H3048V552Z" fill="#9F9F9F"/>
<path opacity="0.1" d="M3048 558H-1920V559H3048V558Z" fill="#9F9F9F"/>
<path opacity="0.1" d="M3048 564H-1920V565H3048V564Z" fill="#9F9F9F"/>
<path opacity="0.1" d="M3048 570H-1920V571H3048V570Z" fill="#9F9F9F"/>
<path opacity="0.1" d="M3048 576H-1920V577H3048V576Z" fill="#9F9F9F"/>
<path opacity="0.1" d="M3048 582H-1920V583H3048V582Z" fill="#9F9F9F"/>
<path opacity="0.1" d="M3048 588H-1920V589H3048V588Z" fill="#9F9F9F"/>
<path opacity="0.1" d="M3048 594H-1920V595H3048V594Z" fill="#9F9F9F"/>
<path opacity="0.1" d="M3048 600H-1920V601H3048V600Z" fill="#9F9F9F"/>
<path opacity="0.1" d="M3048 606H-1920V607H3048V606Z" fill="#9F9F9F"/>
<path opacity="0.1" d="M3048 612H-1920V613H3048V612Z" fill="#9F9F9F"/>
<path opacity="0.1" d="M3048 618H-1920V619H3048V618Z" fill="#9F9F9F"/>
<path opacity="0.1" d="M3048 624H-1920V625H3048V624Z" fill="#9F9F9F"/>
<path opacity="0.1" d="M3048 630H-1920V631H3048V630Z" fill="#9F9F9F"/>
<path opacity="0.1" d="M3048 636H-1920V637H3048V636Z" fill="#9F9F9F"/>
<path opacity="0.1" d="M3048 642H-1920V643H3048V642Z" fill="#9F9F9F"/>
<path opacity="0.1" d="M3048 648H-1920V649H3048V648Z" fill="#9F9F9F"/>
<path opacity="0.1" d="M3048 654H-1920V655H3048V654Z" fill="#9F9F9F"/>
<path opacity="0.1" d="M3048 660H-1920V661H3048V660Z" fill="#9F9F9F"/>
<path opacity="0.1" d="M3048 666H-1920V667H3048V666Z" fill="#9F9F9F"/>
<path opacity="0.1" d="M3048 672H-1920V673H3048V672Z" fill="#9F9F9F"/>
<path opacity="0.1" d="M3048 678H-1920V679H3048V678Z" fill="#9F9F9F"/>
<path opacity="0.1" d="M3048 684H-1920V685H3048V684Z" fill="#9F9F9F"/>
<path opacity="0.1" d="M3048 690H-1920V691H3048V690Z" fill="#9F9F9F"/>
<path opacity="0.1" d="M3048 696H-1920V697H3048V696Z" fill="#9F9F9F"/>
<path opacity="0.1" d="M3048 702H-1920V703H3048V702Z" fill="#9F9F9F"/>
<path opacity="0.1" d="M3048 708H-1920V709H3048V708Z" fill="#9F9F9F"/>
<path opacity="0.1" d="M3048 714H-1920V715H3048V714Z" fill="#9F9F9F"/>
<path opacity="0.1" d="M3048 720H-1920V721H3048V720Z" fill="#9F9F9F"/>
<path opacity="0.1" d="M3048 726H-1920V727H3048V726Z" fill="#9F9F9F"/>
<path opacity="0.1" d="M3048 732H-1920V733H3048V732Z" fill="#9F9F9F"/>
<path opacity="0.1" d="M3048 738H-1920V739H3048V738Z" fill="#9F9F9F"/>
<path opacity="0.1" d="M3048 744H-1920V745H3048V744Z" fill="#9F9F9F"/>
<path opacity="0.1" d="M3048 750H-1920V751H3048V750Z" fill="#9F9F9F"/>
<path opacity="0.1" d="M3048 756H-1920V757H3048V756Z" fill="#9F9F9F"/>
<path opacity="0.1" d="M3048 762H-1920V763H3048V762Z" fill="#9F9F9F"/>
<path opacity="0.1" d="M3048 768H-1920V769H3048V768Z" fill="#9F9F9F"/>
<path opacity="0.1" d="M3048 774H-1920V775H3048V774Z" fill="#9F9F9F"/>
<path opacity="0.1" d="M3048 780H-1920V781H3048V780Z" fill="#9F9F9F"/>
<path opacity="0.1" d="M3048 786H-1920V787H3048V786Z" fill="#9F9F9F"/>
<path opacity="0.1" d="M3048 792H-1920V793H3048V792Z" fill="#9F9F9F"/>
<path opacity="0.1" d="M3048 798H-1920V799H3048V798Z" fill="#9F9F9F"/>
<path opacity="0.1" d="M3048 804H-1920V805H3048V804Z" fill="#9F9F9F"/>
<path opacity="0.1" d="M3048 810H-1920V811H3048V810Z" fill="#9F9F9F"/>
<path opacity="0.1" d="M3048 816H-1920V817H3048V816Z" fill="#9F9F9F"/>
<path opacity="0.1" d="M3048 822H-1920V823H3048V822Z" fill="#9F9F9F"/>
<path opacity="0.1" d="M3048 828H-1920V829H3048V828Z" fill="#9F9F9F"/>
<path opacity="0.1" d="M6 -894H5V1048H6V-894Z" fill="#9F9F9F"/>
<path opacity="0.1" d="M12 -894H11V1048H12V-894Z" fill="#9F9F9F"/>
<path opacity="0.1" d="M18 -894H17V1048H18V-894Z" fill="#9F9F9F"/>
<path opacity="0.1" d="M24 -894H23V1048H24V-894Z" fill="#9F9F9F"/>
<path opacity="0.1" d="M30 -894H29V1048H30V-894Z" fill="#9F9F9F"/>
<path opacity="0.1" d="M36 -894H35V1048H36V-894Z" fill="#9F9F9F"/>
<path opacity="0.1" d="M42 -894H41V1048H42V-894Z" fill="#9F9F9F"/>
<path opacity="0.1" d="M48 -894H47V1048H48V-894Z" fill="#9F9F9F"/>
<path opacity="0.1" d="M54 -894H53V1048H54V-894Z" fill="#9F9F9F"/>
<path opacity="0.1" d="M60 -894H59V1048H60V-894Z" fill="#9F9F9F"/>
<path opacity="0.1" d="M66 -894H65V1048H66V-894Z" fill="#9F9F9F"/>
<path opacity="0.1" d="M72 -894H71V1048H72V-894Z" fill="#9F9F9F"/>
<path opacity="0.1" d="M78 -894H77V1048H78V-894Z" fill="#9F9F9F"/>
<path opacity="0.1" d="M84 -894H83V1048H84V-894Z" fill="#9F9F9F"/>
<path opacity="0.1" d="M90 -894H89V1048H90V-894Z" fill="#9F9F9F"/>
<path opacity="0.1" d="M96 -894H95V1048H96V-894Z" fill="#9F9F9F"/>
<path opacity="0.1" d="M102 -894H101V1048H102V-894Z" fill="#9F9F9F"/>
<path opacity="0.1" d="M108 -894H107V1048H108V-894Z" fill="#9F9F9F"/>
<path opacity="0.1" d="M114 -894H113V1048H114V-894Z" fill="#9F9F9F"/>
<path opacity="0.1" d="M120 -894H119V1048H120V-894Z" fill="#9F9F9F"/>
<path opacity="0.1" d="M126 -894H125V1048H126V-894Z" fill="#9F9F9F"/>
<path opacity="0.1" d="M132 -894H131V1048H132V-894Z" fill="#9F9F9F"/>
<path opacity="0.1" d="M138 -894H137V1048H138V-894Z" fill="#9F9F9F"/>
<path opacity="0.1" d="M144 -894H143V1048H144V-894Z" fill="#9F9F9F"/>
<path opacity="0.1" d="M150 -894H149V1048H150V-894Z" fill="#9F9F9F"/>
<path opacity="0.1" d="M156 -894H155V1048H156V-894Z" fill="#9F9F9F"/>
<path opacity="0.1" d="M162 -894H161V1048H162V-894Z" fill="#9F9F9F"/>
<path opacity="0.1" d="M168 -894H167V1048H168V-894Z" fill="#9F9F9F"/>
<path opacity="0.1" d="M174 -894H173V1048H174V-894Z" fill="#9F9F9F"/>
<path opacity="0.1" d="M180 -894H179V1048H180V-894Z" fill="#9F9F9F"/>
<path opacity="0.1" d="M186 -894H185V1048H186V-894Z" fill="#9F9F9F"/>
<path opacity="0.1" d="M192 -894H191V1048H192V-894Z" fill="#9F9F9F"/>
<path opacity="0.1" d="M198 -894H197V1048H198V-894Z" fill="#9F9F9F"/>
<path opacity="0.1" d="M204 -894H203V1048H204V-894Z" fill="#9F9F9F"/>
<path opacity="0.1" d="M210 -894H209V1048H210V-894Z" fill="#9F9F9F"/>
<path opacity="0.1" d="M216 -894H215V1048H216V-894Z" fill="#9F9F9F"/>
<path opacity="0.1" d="M222 -894H221V1048H222V-894Z" fill="#9F9F9F"/>
<path opacity="0.1" d="M228 -894H227V1048H228V-894Z" fill="#9F9F9F"/>
<path opacity="0.1" d="M234 -894H233V1048H234V-894Z" fill="#9F9F9F"/>
<path opacity="0.1" d="M240 -894H239V1048H240V-894Z" fill="#9F9F9F"/>
<path opacity="0.1" d="M246 -894H245V1048H246V-894Z" fill="#9F9F9F"/>
<path opacity="0.1" d="M252 -894H251V1048H252V-894Z" fill="#9F9F9F"/>
<path opacity="0.1" d="M258 -894H257V1048H258V-894Z" fill="#9F9F9F"/>
<path opacity="0.1" d="M264 -894H263V1048H264V-894Z" fill="#9F9F9F"/>
<path opacity="0.1" d="M270 -894H269V1048H270V-894Z" fill="#9F9F9F"/>
<path opacity="0.1" d="M276 -894H275V1048H276V-894Z" fill="#9F9F9F"/>
<path opacity="0.1" d="M282 -894H281V1048H282V-894Z" fill="#9F9F9F"/>
<path opacity="0.1" d="M288 -894H287V1048H288V-894Z" fill="#9F9F9F"/>
<path opacity="0.1" d="M294 -894H293V1048H294V-894Z" fill="#9F9F9F"/>
<path opacity="0.1" d="M300 -894H299V1048H300V-894Z" fill="#9F9F9F"/>
<path opacity="0.1" d="M306 -894H305V1048H306V-894Z" fill="#9F9F9F"/>
<path opacity="0.1" d="M312 -894H311V1048H312V-894Z" fill="#9F9F9F"/>
<path opacity="0.1" d="M318 -894H317V1048H318V-894Z" fill="#9F9F9F"/>
<path opacity="0.1" d="M324 -894H323V1048H324V-894Z" fill="#9F9F9F"/>
<path opacity="0.1" d="M330 -894H329V1048H330V-894Z" fill="#9F9F9F"/>
<path opacity="0.1" d="M336 -894H335V1048H336V-894Z" fill="#9F9F9F"/>
<path opacity="0.1" d="M342 -894H341V1048H342V-894Z" fill="#9F9F9F"/>
<path opacity="0.1" d="M348 -894H347V1048H348V-894Z" fill="#9F9F9F"/>
<path opacity="0.1" d="M354 -894H353V1048H354V-894Z" fill="#9F9F9F"/>
<path opacity="0.1" d="M360 -894H359V1048H360V-894Z" fill="#9F9F9F"/>
<path opacity="0.1" d="M366 -894H365V1048H366V-894Z" fill="#9F9F9F"/>
<path opacity="0.1" d="M372 -894H371V1048H372V-894Z" fill="#9F9F9F"/>
<path opacity="0.1" d="M378 -894H377V1048H378V-894Z" fill="#9F9F9F"/>
<path opacity="0.1" d="M384 -894H383V1048H384V-894Z" fill="#9F9F9F"/>
<path opacity="0.1" d="M390 -894H389V1048H390V-894Z" fill="#9F9F9F"/>
<path opacity="0.1" d="M396 -894H395V1048H396V-894Z" fill="#9F9F9F"/>
<path opacity="0.1" d="M402 -894H401V1048H402V-894Z" fill="#9F9F9F"/>
<path opacity="0.1" d="M408 -894H407V1048H408V-894Z" fill="#9F9F9F"/>
<path opacity="0.1" d="M414 -894H413V1048H414V-894Z" fill="#9F9F9F"/>
<path opacity="0.1" d="M420 -894H419V1048H420V-894Z" fill="#9F9F9F"/>
<path opacity="0.1" d="M426 -894H425V1048H426V-894Z" fill="#9F9F9F"/>
<path opacity="0.1" d="M432 -894H431V1048H432V-894Z" fill="#9F9F9F"/>
<path opacity="0.1" d="M438 -894H437V1048H438V-894Z" fill="#9F9F9F"/>
<path opacity="0.1" d="M444 -894H443V1048H444V-894Z" fill="#9F9F9F"/>
<path opacity="0.1" d="M450 -894H449V1048H450V-894Z" fill="#9F9F9F"/>
<path opacity="0.1" d="M456 -894H455V1048H456V-894Z" fill="#9F9F9F"/>
<path opacity="0.1" d="M462 -894H461V1048H462V-894Z" fill="#9F9F9F"/>
<path opacity="0.1" d="M468 -894H467V1048H468V-894Z" fill="#9F9F9F"/>
<path opacity="0.1" d="M474 -894H473V1048H474V-894Z" fill="#9F9F9F"/>
<path opacity="0.1" d="M480 -894H479V1048H480V-894Z" fill="#9F9F9F"/>
<path opacity="0.1" d="M486 -894H485V1048H486V-894Z" fill="#9F9F9F"/>
<path opacity="0.1" d="M492 -894H491V1048H492V-894Z" fill="#9F9F9F"/>
<path opacity="0.1" d="M498 -894H497V1048H498V-894Z" fill="#9F9F9F"/>
<path opacity="0.1" d="M504 -894H503V1048H504V-894Z" fill="#9F9F9F"/>
<path opacity="0.1" d="M510 -894H509V1048H510V-894Z" fill="#9F9F9F"/>
<path opacity="0.1" d="M516 -894H515V1048H516V-894Z" fill="#9F9F9F"/>
<path opacity="0.1" d="M522 -894H521V1048H522V-894Z" fill="#9F9F9F"/>
<path opacity="0.1" d="M528 -894H527V1048H528V-894Z" fill="#9F9F9F"/>
<path opacity="0.1" d="M534 -894H533V1048H534V-894Z" fill="#9F9F9F"/>
<path opacity="0.1" d="M540 -894H539V1048H540V-894Z" fill="#9F9F9F"/>
<path opacity="0.1" d="M546 -894H545V1048H546V-894Z" fill="#9F9F9F"/>
<path opacity="0.1" d="M552 -894H551V1048H552V-894Z" fill="#9F9F9F"/>
<path opacity="0.1" d="M558 -894H557V1048H558V-894Z" fill="#9F9F9F"/>
<path opacity="0.1" d="M564 -894H563V1048H564V-894Z" fill="#9F9F9F"/>
<path opacity="0.1" d="M570 -894H569V1048H570V-894Z" fill="#9F9F9F"/>
<path opacity="0.1" d="M576 -894H575V1048H576V-894Z" fill="#9F9F9F"/>
<path opacity="0.1" d="M582 -894H581V1048H582V-894Z" fill="#9F9F9F"/>
<path opacity="0.1" d="M588 -894H587V1048H588V-894Z" fill="#9F9F9F"/>
<path opacity="0.1" d="M594 -894H593V1048H594V-894Z" fill="#9F9F9F"/>
<path opacity="0.1" d="M600 -894H599V1048H600V-894Z" fill="#9F9F9F"/>
<path opacity="0.1" d="M606 -894H605V1048H606V-894Z" fill="#9F9F9F"/>
<path opacity="0.1" d="M612 -894H611V1048H612V-894Z" fill="#9F9F9F"/>
<path opacity="0.1" d="M618 -894H617V1048H618V-894Z" fill="#9F9F9F"/>
<path opacity="0.1" d="M624 -894H623V1048H624V-894Z" fill="#9F9F9F"/>
<path opacity="0.1" d="M630 -894H629V1048H630V-894Z" fill="#9F9F9F"/>
<path opacity="0.1" d="M636 -894H635V1048H636V-894Z" fill="#9F9F9F"/>
<path opacity="0.1" d="M642 -894H641V1048H642V-894Z" fill="#9F9F9F"/>
<path opacity="0.1" d="M648 -894H647V1048H648V-894Z" fill="#9F9F9F"/>
<path opacity="0.1" d="M654 -894H653V1048H654V-894Z" fill="#9F9F9F"/>
<path opacity="0.1" d="M660 -894H659V1048H660V-894Z" fill="#9F9F9F"/>
<path opacity="0.1" d="M666 -894H665V1048H666V-894Z" fill="#9F9F9F"/>
<path opacity="0.1" d="M672 -894H671V1048H672V-894Z" fill="#9F9F9F"/>
<path opacity="0.1" d="M678 -894H677V1048H678V-894Z" fill="#9F9F9F"/>
<path opacity="0.1" d="M684 -894H683V1048H684V-894Z" fill="#9F9F9F"/>
<path opacity="0.1" d="M690 -894H689V1048H690V-894Z" fill="#9F9F9F"/>
<path opacity="0.1" d="M696 -894H695V1048H696V-894Z" fill="#9F9F9F"/>
<path opacity="0.1" d="M702 -894H701V1048H702V-894Z" fill="#9F9F9F"/>
<path opacity="0.1" d="M708 -894H707V1048H708V-894Z" fill="#9F9F9F"/>
<path opacity="0.1" d="M714 -894H713V1048H714V-894Z" fill="#9F9F9F"/>
<path opacity="0.1" d="M720 -894H719V1048H720V-894Z" fill="#9F9F9F"/>
<path opacity="0.1" d="M726 -894H725V1048H726V-894Z" fill="#9F9F9F"/>
<path opacity="0.1" d="M732 -894H731V1048H732V-894Z" fill="#9F9F9F"/>
<path opacity="0.1" d="M738 -894H737V1048H738V-894Z" fill="#9F9F9F"/>
<path opacity="0.1" d="M744 -894H743V1048H744V-894Z" fill="#9F9F9F"/>
<path opacity="0.1" d="M750 -894H749V1048H750V-894Z" fill="#9F9F9F"/>
<path opacity="0.1" d="M756 -894H755V1048H756V-894Z" fill="#9F9F9F"/>
<path opacity="0.1" d="M762 -894H761V1048H762V-894Z" fill="#9F9F9F"/>
<path opacity="0.1" d="M768 -894H767V1048H768V-894Z" fill="#9F9F9F"/>
<path opacity="0.1" d="M774 -894H773V1048H774V-894Z" fill="#9F9F9F"/>
<path opacity="0.1" d="M780 -894H779V1048H780V-894Z" fill="#9F9F9F"/>
<path opacity="0.1" d="M786 -894H785V1048H786V-894Z" fill="#9F9F9F"/>
<path opacity="0.1" d="M792 -894H791V1048H792V-894Z" fill="#9F9F9F"/>
<path opacity="0.1" d="M798 -894H797V1048H798V-894Z" fill="#9F9F9F"/>
<path opacity="0.1" d="M804 -894H803V1048H804V-894Z" fill="#9F9F9F"/>
<path opacity="0.1" d="M810 -894H809V1048H810V-894Z" fill="#9F9F9F"/>
<path opacity="0.1" d="M816 -894H815V1048H816V-894Z" fill="#9F9F9F"/>
<path opacity="0.1" d="M822 -894H821V1048H822V-894Z" fill="#9F9F9F"/>
<path opacity="0.1" d="M828 -894H827V1048H828V-894Z" fill="#9F9F9F"/>
<path opacity="0.1" d="M834 -894H833V1048H834V-894Z" fill="#9F9F9F"/>
<path opacity="0.1" d="M840 -894H839V1048H840V-894Z" fill="#9F9F9F"/>
<path opacity="0.1" d="M846 -894H845V1048H846V-894Z" fill="#9F9F9F"/>
<path opacity="0.1" d="M852 -894H851V1048H852V-894Z" fill="#9F9F9F"/>
<path opacity="0.1" d="M858 -894H857V1048H858V-894Z" fill="#9F9F9F"/>
<path opacity="0.1" d="M864 -894H863V1048H864V-894Z" fill="#9F9F9F"/>
<path opacity="0.1" d="M870 -894H869V1048H870V-894Z" fill="#9F9F9F"/>
<path opacity="0.1" d="M876 -894H875V1048H876V-894Z" fill="#9F9F9F"/>
<path opacity="0.1" d="M882 -894H881V1048H882V-894Z" fill="#9F9F9F"/>
<path opacity="0.1" d="M888 -894H887V1048H888V-894Z" fill="#9F9F9F"/>
<path opacity="0.1" d="M894 -894H893V1048H894V-894Z" fill="#9F9F9F"/>
<path opacity="0.1" d="M900 -894H899V1048H900V-894Z" fill="#9F9F9F"/>
<path opacity="0.1" d="M906 -894H905V1048H906V-894Z" fill="#9F9F9F"/>
<path opacity="0.1" d="M912 -894H911V1048H912V-894Z" fill="#9F9F9F"/>
<path opacity="0.1" d="M918 -894H917V1048H918V-894Z" fill="#9F9F9F"/>
<path opacity="0.1" d="M924 -894H923V1048H924V-894Z" fill="#9F9F9F"/>
<path opacity="0.1" d="M930 -894H929V1048H930V-894Z" fill="#9F9F9F"/>
<path opacity="0.1" d="M936 -894H935V1048H936V-894Z" fill="#9F9F9F"/>
<path opacity="0.1" d="M942 -894H941V1048H942V-894Z" fill="#9F9F9F"/>
<path opacity="0.1" d="M948 -894H947V1048H948V-894Z" fill="#9F9F9F"/>
<path opacity="0.1" d="M954 -894H953V1048H954V-894Z" fill="#9F9F9F"/>
<path opacity="0.1" d="M960 -894H959V1048H960V-894Z" fill="#9F9F9F"/>
<path opacity="0.1" d="M966 -894H965V1048H966V-894Z" fill="#9F9F9F"/>
<path opacity="0.1" d="M972 -894H971V1048H972V-894Z" fill="#9F9F9F"/>
<path opacity="0.1" d="M978 -894H977V1048H978V-894Z" fill="#9F9F9F"/>
<path opacity="0.1" d="M984 -894H983V1048H984V-894Z" fill="#9F9F9F"/>
<path opacity="0.1" d="M990 -894H989V1048H990V-894Z" fill="#9F9F9F"/>
<path opacity="0.1" d="M996 -894H995V1048H996V-894Z" fill="#9F9F9F"/>
<path opacity="0.1" d="M1002 -894H1001V1048H1002V-894Z" fill="#9F9F9F"/>
<path opacity="0.1" d="M1008 -894H1007V1048H1008V-894Z" fill="#9F9F9F"/>
<path opacity="0.1" d="M1014 -894H1013V1048H1014V-894Z" fill="#9F9F9F"/>
<path opacity="0.1" d="M1020 -894H1019V1048H1020V-894Z" fill="#9F9F9F"/>
<path opacity="0.1" d="M1026 -894H1025V1048H1026V-894Z" fill="#9F9F9F"/>
<path opacity="0.1" d="M1032 -894H1031V1048H1032V-894Z" fill="#9F9F9F"/>
<path opacity="0.1" d="M1038 -894H1037V1048H1038V-894Z" fill="#9F9F9F"/>
<path opacity="0.1" d="M1044 -894H1043V1048H1044V-894Z" fill="#9F9F9F"/>
<path opacity="0.1" d="M1050 -894H1049V1048H1050V-894Z" fill="#9F9F9F"/>
<path opacity="0.1" d="M1056 -894H1055V1048H1056V-894Z" fill="#9F9F9F"/>
<path opacity="0.1" d="M1062 -894H1061V1048H1062V-894Z" fill="#9F9F9F"/>
</g>
</g>
<defs>
<clipPath id="clip0_646_1635">
<rect width="1067" height="834" fill="white"/>
</clipPath>
<clipPath id="clip1_646_1635">
<rect width="1660" height="702" fill="white" transform="translate(-268 61)"/>
</clipPath>
<clipPath id="clip2_646_1635">
<rect width="921" height="702" fill="white" transform="matrix(0 -1 1 0 185.5 871)"/>
</clipPath>
<clipPath id="clip3_646_1635">
<rect width="4320" height="3132" fill="white" transform="translate(-1596 -1128)"/>
</clipPath>
</defs>
</svg>
