<svg width="11" height="11" viewBox="0 0 11 11" fill="none" xmlns="http://www.w3.org/2000/svg">
<path d="M5.08661 0.318027C5.15688 -0.0223854 5.64313 -0.0223848 5.71339 0.318027L6.18638 2.60941C6.23209 2.83082 6.48675 2.93631 6.67563 2.81206L8.63034 1.52626C8.92073 1.33524 9.26456 1.67907 9.07354 1.96947L7.78774 3.92417C7.6635 4.11305 7.76898 4.36772 7.9904 4.41342L10.2818 4.88641C10.6222 4.95668 10.6222 5.44293 10.2818 5.5132L7.9904 5.98619C7.76898 6.03189 7.6635 6.28656 7.78774 6.47544L9.07354 8.43014C9.26456 8.72054 8.92073 9.06437 8.63034 8.87335L6.67563 7.58755C6.48675 7.4633 6.23209 7.56879 6.18638 7.7902L5.71339 10.0816C5.64312 10.422 5.15688 10.422 5.08661 10.0816L4.61362 7.7902C4.56791 7.56879 4.31325 7.4633 4.12437 7.58755L2.16966 8.87335C1.87927 9.06437 1.53544 8.72054 1.72646 8.43014L3.01226 6.47544C3.1365 6.28655 3.03102 6.03189 2.8096 5.98619L0.518222 5.5132C0.17781 5.44293 0.177811 4.95668 0.518223 4.88641L2.8096 4.41342C3.03102 4.36772 3.1365 4.11305 3.01226 3.92417L1.72646 1.96947C1.53544 1.67907 1.87927 1.33524 2.16966 1.52626L4.12437 2.81206C4.31325 2.93631 4.56791 2.83082 4.61362 2.60941L5.08661 0.318027Z" fill="#17B67E"/>
</svg>
