<svg width="211" height="75" viewBox="0 0 211 75" fill="none" xmlns="http://www.w3.org/2000/svg">
<path d="M1.76001 72.9992L11.36 68.199L8.77296 66.2207C6.69855 68.3158 4.37405 70.5718 1.76001 72.9992Z" fill="#15A26F"/>
<path d="M5.92001 64.039L1.76001 72.9992C4.37405 70.5718 6.69855 68.3158 8.77296 66.2207L5.92001 64.039Z" fill="#15A26F"/>
<path d="M210.72 1C113.12 3.24 139.04 26.92 76.96 15.72C49.1866 10.7093 40.16 25.9591 24.48 47.7192C21.6657 51.6248 17.3641 57.5435 8.77296 66.2207M1.76001 72.9992L11.36 68.199L8.77296 66.2207M1.76001 72.9992L5.92001 64.039L8.77296 66.2207M1.76001 72.9992C4.37405 70.5718 6.69855 68.3158 8.77296 66.2207" stroke="#15A26F"/>
</svg>
